<svg xmlns="http://www.w3.org/2000/svg">
<defs>
<font id="MinecraftEvenings" horiz-adv-x="1270" >
  <font-face 
    font-family="Minecraft Evenings"
    font-weight="400"
    font-stretch="normal"
    units-per-em="2048"
    panose-1="2 0 5 0 0 0 0 0 0 0"
    ascent="1638"
    descent="-410"
    x-height="1432"
    cap-height="1433"
    bbox="-54 -286 2218 1648"
    underline-thickness="150"
    underline-position="-142"
    unicode-range="U+001D-U+F002"
  />
<missing-glyph horiz-adv-x="2316" 
d="M828 1242q312 -5 463 -5h168l23 -4l-13 -622q0 -28 -32 -28h-9q0 22 -182 28q-32 -18 -45 -18q-17 63 -28 63h-86l-9 -27q0 -12 9 -195q-18 -23 -36 -23h-55q-27 0 -27 18h-9l-23 -18h-95q-5 0 -5 -5q-41 0 -41 32q19 250 19 282h-5l5 9v236q0 19 4 50l-4 9q4 8 4 18
q0 5 -4 14q4 8 4 18q0 5 -4 14q4 8 4 18v9q0 4 -4 4l4 9v19q0 4 -4 4l4 9v68zM1546 1242h195q59 0 59 -100q9 -95 9 -154v-28l5 -27q-5 -7 -5 -23v-18q0 -4 5 -4q-9 -17 -9 -37v-13q0 -12 9 -123v-122l4 -23h127q37 0 37 -50q-19 0 -41 -50q-23 -12 -23 -18q14 -21 14 -27
h13q21 59 50 59h19l4 22v5l-9 13v32q0 7 14 14h159q27 0 36 -55q-23 -61 -27 -100l-23 -4h-600q-14 0 -50 182q-4 456 -4 626q6 23 32 23zM42 1237h205q32 0 32 -72l9 -46q0 -16 -55 -22v-5q0 -16 132 -27q9 -20 18 -91q-18 -44 -18 -54l14 -10h49q55 0 55 141l9 5l18 -14
h41q52 -9 191 -18v5q-12 20 -127 27q0 6 -28 27h-4q-16 0 -41 -4q-77 43 -77 127q13 31 41 31h204q32 0 32 -72q4 -75 13 -127q0 -5 -4 -5l4 -23v-109q0 -4 5 -4l-5 -9v-23q0 -4 5 -4l-5 -10v-13q0 -10 5 -18q-5 -8 -5 -19q0 -10 5 -18q-5 -8 -5 -18t5 -18q-5 -8 -5 -18
q0 -5 5 -14q-5 -8 -5 -18v-9q0 -5 5 -5l-5 -9v-231q0 -37 -27 -37h-9q-41 0 -41 68q-14 28 -18 28l-9 -5q9 -31 9 -54q-4 -37 -18 -37h-154q-15 0 -19 55q14 23 14 32q-9 56 -9 95q0 27 27 27q47 -18 50 -18q41 9 59 9q53 0 64 -100v-9h4q9 0 9 9v32q0 16 5 41q0 35 -91 54
q-3 0 -59 -4q-58 18 -82 32q-38 -5 -59 -5q-27 48 -27 114q41 12 41 18v4q-69 19 -96 19h-22q-9 -2 -9 -10q0 -18 4 -49q0 -105 -22 -105q-91 9 -141 27l-23 -4q0 9 -9 9h-55q-4 0 -4 -5q-29 6 -41 23q0 536 23 536zM978 1083l-5 -32v-32q3 -27 14 -27h95v-13q0 -46 -54 -46

<glyph glyph-name=".notdef" horiz-adv-x="2316" 
d="M828 1242q312 -5 463 -5h168l23 -4l-13 -622q0 -28 -32 -28h-9q0 22 -182 28q-32 -18 -45 -18q-17 63 -28 63h-86l-9 -27q0 -12 9 -195q-18 -23 -36 -23h-55q-27 0 -27 18h-9l-23 -18h-95q-5 0 -5 -5q-41 0 -41 32q19 250 19 282h-5l5 9v236q0 19 4 50l-4 9q4 8 4 18
q0 5 -4 14q4 8 4 18q0 5 -4 14q4 8 4 18v9q0 4 -4 4l4 9v19q0 4 -4 4l4 9v68zM1546 1242h195q59 0 59 -100q9 -95 9 -154v-28l5 -27q-5 -7 -5 -23v-18q0 -4 5 -4q-9 -17 -9 -37v-13q0 -12 9 -123v-122l4 -23h127q37 0 37 -50q-19 0 -41 -50q-23 -12 -23 -18q14 -21 14 -27
h13q21 59 50 59h19l4 22v5l-9 13v32q0 7 14 14h159q27 0 36 -55q-23 -61 -27 -100l-23 -4h-600q-14 0 -50 182q-4 456 -4 626q6 23 32 23zM42 1237h205q32 0 32 -72l9 -46q0 -16 -55 -22v-5q0 -16 132 -27q9 -20 18 -91q-18 -44 -18 -54l14 -10h49q55 0 55 141l9 5l18 -14
h41q52 -9 191 -18v5q-12 20 -127 27q0 6 -28 27h-4q-16 0 -41 -4q-77 43 -77 127q13 31 41 31h204q32 0 32 -72q4 -75 13 -127q0 -5 -4 -5l4 -23v-109q0 -4 5 -4l-5 -9v-23q0 -4 5 -4l-5 -10v-13q0 -10 5 -18q-5 -8 -5 -19q0 -10 5 -18q-5 -8 -5 -18t5 -18q-5 -8 -5 -18
q0 -5 5 -14q-5 -8 -5 -18v-9q0 -5 5 -5l-5 -9v-231q0 -37 -27 -37h-9q-41 0 -41 68q-14 28 -18 28l-9 -5q9 -31 9 -54q-4 -37 -18 -37h-154q-15 0 -19 55q14 23 14 32q-9 56 -9 95q0 27 27 27q47 -18 50 -18q41 9 59 9q53 0 64 -100v-9h4q9 0 9 9v32q0 16 5 41q0 35 -91 54
q-3 0 -59 -4q-58 18 -82 32q-38 -5 -59 -5q-27 48 -27 114q41 12 41 18v4q-69 19 -96 19h-22q-9 -2 -9 -10q0 -18 4 -49q0 -105 -22 -105q-91 9 -141 27l-23 -4q0 9 -9 9h-55q-4 0 -4 -5q-29 6 -41 23q0 536 23 536zM978 1083l-5 -32v-32q3 -27 14 -27h95v-13q0 -46 -54 -46
q0 -9 -9 -82q9 -14 9 -27v-32q1 -9 9 -9h32q12 0 27 59l23 5h4q82 0 82 -41v-27h46q10 0 27 113q-23 33 -23 55h-14l-31 -5q-14 19 -14 46l9 4h27q82 0 82 18q5 24 5 46v23h-91q-30 0 -46 -73q-15 -9 -27 -9h-63q4 45 4 68l-4 18h-114zM88 665q0 -15 59 -27q0 -9 91 -23
q54 -36 54 -172q-6 -37 -36 -37h-55q-20 28 -40 28h-14q-18 -28 -23 -28h-95q-25 0 -32 19q9 29 9 40v173q0 10 82 27zM1255 593q132 -10 132 -32q45 0 72 -37v-9q0 -100 -45 -100q0 -4 -18 -4h-186q-37 3 -37 32q17 140 41 140q41 0 41 10zM42 393q0 -7 114 -114h9v73
q0 6 14 13h13q28 0 28 -27v-177q0 -9 -10 -9q0 6 -113 114h-9v-73q0 -7 -14 -14h-13q-28 0 -28 28v177q2 9 9 9zM315 365q95 0 95 -104v-68q0 -7 -13 -14h-28q-6 0 -13 14v27h-73v-13q0 -28 -27 -28h-14q-6 0 -13 14v77q0 91 81 91q0 4 5 4zM447 365q27 0 27 -27v-104h113
q7 0 14 -14v-27q0 -7 -14 -14h-154q-7 0 -14 14v145q0 27 28 27zM728 365h50q7 0 14 -13v-27q0 -7 -14 -14h-77q-25 0 -36 -23v-22q0 -23 22 -32h46v9q-32 0 -32 13v28q0 6 14 13h63q7 0 14 -13v-91q0 -7 -14 -14h-63q-105 0 -105 96q0 90 118 90zM896 365q91 -19 91 -90
q0 -5 5 -5v77q1 9 9 9l81 -81q9 0 91 81l5 -9v-154q0 -7 -14 -14h-27q-7 0 -14 14v32h-9l-32 -28q0 7 -27 28h-9v-32q0 -7 -13 -14h-14q-15 0 -32 14q-4 -14 -27 -14h-5q-27 0 -27 28v13h-73v-27q0 -7 -13 -14h-27q-7 0 -14 14v63q0 109 95 109zM1201 365h140q28 0 28 -27
v-13q0 -7 -14 -14h-154q-7 0 -14 14v27q0 6 14 13zM1469 365h77q6 0 13 -13v-27q0 -7 -13 -14h-109v-14h68q54 0 54 -59t-81 -59h-87q-6 0 -13 14v27q0 7 13 14h109v9h-27q-95 0 -95 59q0 63 91 63zM1723 365q91 -9 91 -81l-9 -5h-32q-25 32 -46 32h-4q-25 0 -36 -23v-32
q0 -6 22 -22h32q3 0 32 32h32q9 -2 9 -10q0 -67 -91 -77q-82 0 -91 96q14 90 91 90zM1914 365q95 -13 95 -95q0 -80 -95 -91q-77 0 -91 96q19 90 91 90zM2027 352q70 -77 82 -77q7 0 86 77l5 -9v-150q0 -7 -14 -14h-27q-7 0 -14 14v32h-9l-32 -28q0 7 -22 23h-9v-13
q0 -28 -28 -28h-13q-7 0 -14 14v150q1 9 9 9zM283 293v-18h73v13q-12 23 -37 23q-36 -5 -36 -18zM855 288v-13h73v18q-5 18 -45 18q-19 -6 -28 -23zM1877 261q10 -27 37 -27h18q22 11 22 36v5q0 36 -36 36h-4q-37 0 -37 -50zM1201 297h154q6 0 14 -13v-14q0 -27 -28 -27
h-140q-7 0 -14 13v28q0 6 14 13zM1201 234h154q6 0 14 -14v-27q0 -7 -14 -14h-154q-7 0 -14 14v27q0 7 14 14zM1582 234h27q7 0 14 -14v-27q0 -7 -14 -14h-27q-6 0 -14 14v27q0 7 14 14z" />
    <glyph glyph-name=".null" horiz-adv-x="0" 
 />
    <glyph glyph-name=".null" horiz-adv-x="0" 
 />
    <glyph glyph-name="nonmarkingreturn" horiz-adv-x="508" 
 />
    <glyph glyph-name="space" unicode=" " horiz-adv-x="508" 
 />
    <glyph glyph-name="space" unicode="&#xa0;" horiz-adv-x="508" 
 />
    <glyph glyph-name="exclam" unicode="!" horiz-adv-x="589" 
d="M42 348h374q56 0 57.5 -39.5t11.5 -253.5q-18 -55 -63 -55h-41q-43 0 -132 132q-14 -3 -14 -14v-28q0 -49 14 -76l-21 -14h-180q-20 0 -48 104q7 154 1 223q7 21 41 21zM430 489h-374q-55 0 -55 118v90q0 25 -7 62q0 45 62 55h70q62 33 62 42v14q-45 0 -90 -7
q-90 14 -90 34v132q0 292 -7 349q18 55 62 55h42q43 0 131 -132q14 3 14 14v28q0 49 -14 76l21 14h180q20 0 49 -104q-7 -177 -7 -390l-7 -62l7 -14q-7 -128 -7 -215v-138q-7 -21 -42 -21z" />
    <glyph glyph-name="quotedbl" unicode="&#x22;" horiz-adv-x="1116" 
d="M45 1437h374q56 0 57.5 -39.5t8.5 -545.5q-18 -55 -63 -55h-41q-43 0 -132 132q-14 -3 -14 -14v-28q0 -49 14 -76l-21 -14h-180q-20 0 -48 104q7 340 4 515q7 21 41 21zM576 1437h374q56 0 57.5 -39.5t8.5 -545.5q-18 -55 -63 -55h-41q-43 0 -132 132q-14 -3 -14 -14v-28
q0 -49 14 -76l-21 -14h-180q-20 0 -48 104q7 340 4 515q7 21 41 21z" />
    <glyph glyph-name="dollar" unicode="$" 
d="M56 1432h111q44 0 97 -48l-7 -35v-35q0 -7 7 -7q-7 -13 -7 -21q0 -21 -7 -132h7q-8 -47 -21 -62l-34 6h-139q-38 0 -56 28q17 306 49 306zM583 1425q-3 3 -5 7q-9 -2 -12 -7h17zM811 1425h4v-7q7 -187 35 -187h7v27q0 174 69 174h91q91 0 125 -42q-7 -104 -7 -152v-77
q0 -14 -14 -14h-7q-56 70 -83 70h-98l-69 7q0 -7 -7 -7q10 -29 35 -42h104l35 -7v-14q0 -14 -14 -14h-516l-7 -35q14 -62 27 -236h586q14 0 21 -69q0 -14 -7 -14q7 -70 7 -105v-187q0 -16 7 -28q0 -35 -257 -56q0 -14 -35 -14l-14 7q-28 -10 -28 -21v-7l132 -20q64 20 77 20
q111 0 111 -104q0 -83 7 -83l-7 -14q7 -84 7 -125q0 -49 -69 -49h-245q2 -43 4 -96q-18 -55 -63 -55h-41q-43 0 -132 132q-14 -3 -14 -14v-28q0 -49 14 -76l-21 -14h-180q-20 0 -48 104q1 25 2 47h-307q-10 0 -21 21v62q0 24 -7 35q0 167 83 167h35q319 0 417 -14q25 6 24 7
l69 -7q0 51 34 285l-14 7h-27q-239 0 -239 28l-7 28l7 35q0 71 -41 97l-14 -7l7 -35q0 -132 -84 -132q-59 0 -208 -7q-7 14 -7 21q0 59 -7 222l21 35v14q-21 0 -21 14v146q0 23 90 35q80 -7 153 -7l14 21v76q0 29 7 77q-7 12 -7 27q30 64 59 104q-7 21 -15 49q7 154 1 223
q7 21 41 21h374q56 0 58 -39q1 -33 8 -184z" />
    <glyph glyph-name="ampersand" unicode="&#x26;" horiz-adv-x="1778" 
d="M229 339q8 -11 20 -55l-7 -14q7 -93 7 -138h7l-7 -14v-35q0 -15 7 -28q0 -32 -97 -55h-111q-33 0 -48 312q35 21 55 21h139zM774 7h-331q-90 0 -166 173q0 16 7 28q-7 47 -7 76v76q0 18 -28 21q-55 0 -145 -7q-83 14 -83 35v145q0 7 -7 7l7 14v7q0 28 -7 55q0 14 7 14
q-7 69 -7 104v187q0 16 -7 28q0 35 256 55q0 12 35 14l14 -7q27 11 27 21v7l-131 21q-64 -21 -76 -21q-111 0 -111 104q0 83 -7 83l7 14q-7 83 -7 125q0 48 69 48h1053q10 0 21 -21v-62q0 -23 7 -35q0 -166 -83 -166h-35q-317 0 -416 14q-27 -7 -48 -7l-69 7q0 -50 -35 -284
l14 -7h28q110 0 174 -5v141q0 37 35 55h375l48 -14q40 0 63 -302q-7 -9 -7 -49v-21l7 -14q-14 0 -14 -48v-28q0 -17 14 -222l4 -54q0 -18 14 -41l48 7h65q53 0 62 -84q0 -10 -34 -20q-38 -98 -77 -98q24 -55 35 -55q56 69 62 97q77 0 77 42q0 6 -14 55v42q11 21 21 21h122
q47 0 62 -104q-5 -2 -35 -84q0 -90 -48 -90h-791zM701 568h-188q-7 -116 -28 -249q7 -12 7 -28h219q-9 63 -10 116v161z" />
    <glyph glyph-name="quotesingle" unicode="'" horiz-adv-x="589" 
d="M45 1437h374q56 0 57.5 -39.5t8.5 -545.5q-18 -55 -63 -55h-41q-43 0 -132 132q-14 -3 -14 -14v-28q0 -49 14 -76l-21 -14h-180q-20 0 -48 104q7 340 4 515q7 21 41 21z" />
    <glyph glyph-name="comma" unicode="," horiz-adv-x="589" 
d="M48 354h374q56 0 57.5 -39.5t8.5 -545.5q-18 -55 -63 -55h-41q-43 0 -132 132q-14 -3 -14 -14v-28q0 -49 14 -76l-21 -14h-180q-20 0 -48 104q7 340 4 515q7 21 41 21z" />
    <glyph glyph-name="hyphen" unicode="-" horiz-adv-x="670" 
 />
    <glyph glyph-name="hyphen" unicode="&#xad;" horiz-adv-x="670" 
 />
    <glyph glyph-name="period" unicode="." horiz-adv-x="589" 
d="M42 348h374q56 0 57.5 -39.5t11.5 -253.5q-18 -55 -63 -55h-41q-43 0 -132 132q-14 -3 -14 -14v-28q0 -49 14 -76l-21 -14h-180q-20 0 -48 104q7 154 1 223q7 21 41 21z" />
    <glyph glyph-name="zero" unicode="0" horiz-adv-x="1279" 
d="M1154 0h-370q-72 0 -83 89v62q0 10 -20 20h-14q0 -27 -27 -116v-48q-12 -7 -28 -7h-98q-30 0 -130 103q-44 -19 -130 -41q-18 -55 -62 -55h-103q-23 0 -48 20q-7 149 -14 549q28 75 62 75l41 -6l7 13v14q-116 14 -116 41q-7 38 -7 55q-7 460 -7 542q-7 36 -7 41
q23 75 69 75h612q124 0 336 7q96 -20 96 -27q68 -227 68 -542v-295l7 -41l-7 -14q7 -212 7 -336v-123q0 -37 -34 -55zM688 281q-7 196 -14 240q7 27 7 55v21q0 6 -7 6q14 25 14 55v28q-14 202 -14 219v206l-7 34h-105q-48 0 -48 -199q-7 -24 -7 -27h-20q-43 41 -62 41
q-41 -14 -164 -28l-117 14v-14q0 -20 123 -34h138q52 0 116 -110q0 -100 -48 -459q20 -48 62 -48h153z" />
    <glyph glyph-name="one" unicode="1" horiz-adv-x="589" 
d="M55 1433h374q56 0 56 -118v-90q0 -25 7 -62q0 -45 -63 -55h-69q-62 -33 -62 -42v-14q44 0 90 7q90 -14 90 -34v-132q0 -292 7 -838q-18 -55 -63 -55h-41q-43 0 -132 132q-14 -3 -14 -14v-28q0 -49 14 -76l-21 -14h-180q-20 0 -48 104q7 666 7 879l7 62l-7 14q7 128 7 215
v138q7 21 41 21z" />
    <glyph glyph-name="two" unicode="2" 
d="M7 306q18 28 56 28h139l34 7q13 -16 21 -63h-7q7 -110 7 -132q0 -7 7 -21q-7 0 -7 -7v-35l7 -34q-53 -49 -97 -49h-111q-32 0 -49 306zM857 174v28h-7q-28 0 -35 -188v-7h-377q-71 0 -153 174q0 15 7 28q-7 47 -7 76v77l-14 20q-73 0 -153 -7q-90 12 -90 35v146
q0 14 21 14v14l-21 35q7 164 7 222q0 8 7 21q149 -7 208 -7q84 0 84 -132l-7 -35l14 -7q41 26 41 98l-7 34l7 28q0 28 239 28h27l14 7q-34 235 -34 285l-70 -7q5 0 -23 7q-98 -14 -417 -14h-35q-83 0 -83 167q7 12 7 35v62q11 21 21 21h1031q69 0 69 -48q0 -42 -7 -126
l7 -14q-7 0 -7 -83q0 -104 -111 -104q-13 0 -77 21l-132 -21v-7q0 -11 28 -21l14 7q35 0 35 -14q257 -20 257 -56q-7 -12 -7 -27v-188q0 -35 -7 -104q7 0 7 -14q-7 -70 -21 -70h-586q-13 -174 -27 -236l7 -35h516q14 0 14 -14v-14l-35 -7h-104q-25 -13 -35 -41q7 0 7 -7
l69 7h98q27 0 83 69h7q14 0 14 -14v-76q0 -49 7 -153q-34 -42 -125 -42h-91q-69 0 -69 174z" />
    <glyph glyph-name="three" unicode="3" horiz-adv-x="1255" 
d="M1081 0h-1053q-10 0 -21 21v62q0 23 -7 35q0 166 83 166h35q317 0 415 -14q28 7 49 7l69 -7q0 50 35 284l-14 7h-28q-263 0 -263 28l-7 28l7 34q0 72 -42 97l-13 -7l7 -34q0 -132 -84 -132q-58 0 -207 -7q-7 13 -7 21q0 58 -7 222q26 55 69 55h180q35 0 62 -62h7
q0 62 49 62h256q7 116 28 249q-7 12 -7 28h-540q-14 2 -14 14v14l34 7h104q25 13 35 41q-7 0 -7 7l-69 -7h-97q-27 0 -83 -69h-7q-14 2 -14 14v76q0 49 -7 152q33 42 125 42h90q69 0 69 -173v-28h7q29 0 35 194h387q91 0 167 -173q0 -16 -7 -28q7 -47 7 -76v-76
q0 -18 27 -21q56 0 146 7q83 -14 83 -35v-145q0 -7 7 -7l-7 -14v-7q0 -28 7 -55q0 -14 -7 -14q7 -69 7 -104v-187q0 -16 7 -28q0 -35 -256 -55q0 -12 -35 -14l-14 7q-28 -11 -28 -21v-7l132 -21q64 21 76 21q111 0 111 -104q0 -83 7 -83l-7 -14q7 -83 7 -125q0 -48 -69 -48z
M935 1095q-8 11 -21 55l7 14q-7 93 -7 138h-6l6 14v35q0 15 -6 28q0 32 96 55h111q34 0 49 -312q-35 -21 -56 -21h-138z" />
    <glyph glyph-name="four" unicode="4" horiz-adv-x="1305" 
d="M1123 1433q55 0 55 -103q7 0 14 -49l-21 -165q7 -43 35 -117q0 -117 -76 -117q-104 0 -131 -90q-12 -7 -28 -7h-68q-35 0 -62 -34l124 -21h186l20 -13l-7 -49v-7q0 -14 28 -110q-35 -224 -35 -317q14 -34 21 -34q0 -8 -7 -21q7 -72 7 -117q-28 -62 -69 -62h-368
q-70 64 -66 276q0 28 21 186v34q0 31 -42 62q-174 7 -254 7h-221l-14 7q13 69 55 69h69q35 0 62 34l-124 21h-186l-20 14l7 48v7q0 14 -28 110q34 218 34 331v13q-20 90 -20 97v34q0 57 76 76h130l35 -7v-69q0 -10 21 -20h6q14 96 56 96h103q44 0 55 -55l-7 -14v-14
q0 -48 35 -137q-10 -207 -49 -207q-170 -14 -317 -34v-14h317l49 -69l20 -14h48l83 -7q14 27 21 138q0 7 -7 21q14 122 14 261q36 152 76 152h344z" />
    <glyph glyph-name="five" unicode="5" 
d="M56 1432h111q44 0 97 -48l-7 -35v-35q0 -7 7 -7q-7 -13 -7 -21q0 -21 -7 -132h7q-8 -47 -21 -62l-34 6h-139q-38 0 -56 28q17 306 49 306zM1017 1432q91 0 125 -42q-7 -104 -7 -152v-77q0 -14 -14 -14h-7q-56 70 -83 70l-35 -42l35 -7v-14q0 -14 -14 -14h-516l-7 -35
q14 -62 27 -236h586q14 0 21 -69q0 -14 -7 -14q7 -70 7 -105v-187q0 -16 7 -28q0 -35 -257 -56q0 -14 -35 -14l-14 7q-28 -10 -28 -21v-7l132 -20q64 20 77 20q111 0 111 -104q0 -83 7 -83l-7 -14q7 -84 7 -125q0 -49 -69 -49h-1031q-10 0 -21 21v62q0 24 -7 35
q0 167 83 167h35q319 0 417 -14q28 7 23 7l70 -7q0 51 34 285l-14 7h-27q-239 0 -239 28l-7 28l7 35q0 71 -41 97l-14 -7l7 -35q0 -132 -84 -132q-59 0 -208 -7q-7 14 -7 21q0 59 -7 222l21 35v14q-21 0 -21 14v146q0 23 90 35q80 -7 153 -7l14 21v76q0 29 7 77q-7 12 -7 27
q82 174 153 174z" />
    <glyph glyph-name="six" unicode="6" 
d="M56 1432h111q44 0 97 -48l-7 -35v-35q0 -7 7 -7q-7 -13 -7 -21q0 -21 -7 -132h7q-8 -47 -21 -62l-34 6h-139q-38 0 -56 28q17 306 49 306zM381 679q-7 51 -40 72l-14 -7l7 -35q0 -12 -1 -22q23 -1 48 -8zM54 571q-6 -1 -12 -1q-7 14 -7 21q0 59 -7 222l21 35v14
q-21 0 -21 14v146q0 23 90 35q80 -7 153 -7l14 21v76q0 29 7 77q-7 12 -7 27q82 174 153 174h377v-7q7 -187 35 -187h7v27q0 174 69 174h91q91 0 125 -42q-7 -104 -7 -152v-77q0 -14 -14 -14h-7q-56 70 -83 70h-98l-69 7q0 -7 -7 -7q10 -29 35 -42h104l35 -7v-14
q0 -14 -14 -14h-516l-7 -35q14 -62 27 -236h586q14 0 21 -69q0 -14 -7 -14q7 -70 7 -105v-187q0 -16 7 -28q0 -35 -257 -56q0 -14 -35 -14l-14 7q-28 -10 -28 -21v-7l132 -20q64 20 77 20q111 0 111 -104q0 -83 7 -83l-7 -14q7 -84 7 -125q0 -49 -69 -49h-1031q-10 0 -21 21
v62q0 24 -7 35q0 73 16 114q16 225 38 339zM489 276q27 -2 46 -5q25 6 24 7l69 -7q0 51 34 285l-14 7h-27q-69 0 -118 2l-3 -14v-56q0 -11 13 -11q-13 -22 -13 -34q0 -31 -11 -174z" />
    <glyph glyph-name="seven" unicode="7" horiz-adv-x="1168" 
d="M608 14q-40 0 -63 521q7 9 7 48v21l-7 14q14 0 14 49v27q0 18 -14 223v208q0 19 -14 41l-48 -6h-167q-53 0 -62 83q0 10 34 21q38 97 77 97q-24 55 -35 55q-56 -69 -62 -97q-77 0 -77 -41q0 -7 14 -56v-42q-11 -20 -21 -20h-122q-47 0 -62 104q5 2 35 83q0 90 48 90h893
l14 -7q69 -245 69 -555v-299l7 -48q-7 0 -7 -7q7 -215 7 -340v-125q0 -38 -35 -56h-375z" />
    <glyph glyph-name="eight" unicode="8" horiz-adv-x="1276" 
d="M358 0q-38 7 -55 7q-69 -7 -172 -7t-103 28v41q0 28 -7 55q7 101 27 151q-27 261 -34 268l27 117v7l-7 48l21 14h186q123 16 123 27q-41 28 -61 28h-69q-32 0 -69 75q-42 20 -144 35q-12 25 -21 103q28 74 34 117l-20 165q22 151 62 151h777q13 0 13 -14v-13
q-20 -26 -20 -49v-68q0 -59 7 -124l-7 -28q27 -151 62 -137h6q-27 50 -27 165v186q16 30 69 82h130l35 7q19 0 34 -406q-12 -12 -158 -27q-36 7 -69 7l-7 -14q44 -24 165 -41q83 -38 83 -179q7 -121 7 -144q0 -27 -28 -117l21 -48l-21 -35l21 -412q-7 0 -7 -7l-14 7
q-25 -14 -55 -14h-412q-143 0 -323 -7zM667 275l27 261q-6 14 -6 21h-131q-55 -30 -55 -76l-14 -7h-316v-13q344 -33 344 -55q11 -131 27 -131l48 7q61 -7 76 -7zM612 866h34l14 7l-14 124q35 46 35 69v41l-7 34h-138q-10 0 -27 -27v-21q0 -32 7 -69l-7 -27q7 -111 20 -138z
" />
    <glyph glyph-name="nine" unicode="9" 
d="M56 1432h111q44 0 97 -48l-7 -35v-35q0 -7 7 -7q-7 -13 -7 -21q0 -21 -7 -132h7q-8 -47 -21 -62l-34 6h-139q-38 0 -56 28q17 306 49 306zM696 1140h-195l-7 -35q14 -62 27 -236h142q14 177 33 271zM1108 869q13 -3 20 -69q0 -14 -7 -14q7 -70 7 -105v-187q0 -16 7 -28
q0 -35 -257 -56q0 -14 -35 -14l-14 7q-28 -10 -28 -21v-7l132 -20q64 20 77 20q111 0 111 -104q0 -83 7 -83l-7 -14q7 -84 7 -125q0 -49 -69 -49h-1031q-10 0 -21 21v62q0 24 -7 35q0 167 83 167h35q319 0 417 -14q25 6 24 7l69 -7q0 51 34 285l-14 7h-27q-239 0 -239 28
l-7 28l7 35q0 71 -41 97l-14 -7l7 -35q0 -132 -84 -132q-59 0 -208 -7q-7 14 -7 21q0 59 -7 222l21 35v14q-21 0 -21 14v146q0 23 90 35q80 -7 153 -7l14 21v76q0 29 7 77q-7 12 -7 27q82 174 153 174h377v-7q5 -136 21 -173h21v13q0 174 69 174h91q91 0 125 -42
q-7 -104 -7 -152v-77q0 -12 -11 -14l-8 -38v-56q0 -11 12 -11q-12 -22 -12 -34q0 -27 -8 -139z" />
    <glyph glyph-name="colon" unicode=":" horiz-adv-x="589" 
d="M45 598h374q56 0 57.5 -39.5t11.5 -253.5q-18 -55 -63 -55h-41q-43 0 -132 132q-14 -3 -14 -14v-28q0 -49 14 -76l-21 -14h-180q-20 0 -48 104q7 154 1 223q7 21 41 21zM42 1126h374q56 0 57.5 -39.5t11.5 -253.5q-18 -55 -63 -55h-41q-43 0 -132 132q-14 -3 -14 -14v-28
q0 -49 14 -76l-21 -14h-180q-20 0 -48 104q7 154 1 223q7 21 41 21z" />
    <glyph glyph-name="semicolon" unicode=";" horiz-adv-x="589" 
d="M45 598h374q56 0 57.5 -39.5t8.5 -537.5q-18 -55 -63 -55h-41q-43 0 -132 132q-14 -3 -14 -14v-28q0 -49 14 -76l-21 -14h-180q-20 0 -48 104q10 438 4 507q7 21 41 21zM42 1126h374q56 0 57.5 -39.5t11.5 -253.5q-18 -55 -63 -55h-41q-43 0 -132 132q-14 -3 -14 -14v-28
q0 -49 14 -76l-21 -14h-180q-20 0 -48 104q7 154 1 223q7 21 41 21z" />
    <glyph glyph-name="semicolon" unicode="&#x37e;" horiz-adv-x="589" 
d="M45 598h374q56 0 57.5 -39.5t8.5 -537.5q-18 -55 -63 -55h-41q-43 0 -132 132q-14 -3 -14 -14v-28q0 -49 14 -76l-21 -14h-180q-20 0 -48 104q10 438 4 507q7 21 41 21zM42 1126h374q56 0 57.5 -39.5t11.5 -253.5q-18 -55 -63 -55h-41q-43 0 -132 132q-14 -3 -14 -14v-28
q0 -49 14 -76l-21 -14h-180q-20 0 -48 104q7 154 1 223q7 21 41 21z" />
    <glyph glyph-name="question" unicode="?" 
d="M28 556q0 14 21 14v14l-21 35q7 164 7 222q0 8 7 21q149 -7 208 -7q84 0 84 -132l-7 -35l14 -7q41 26 41 98l-7 34l7 28q0 28 239 28h27l14 7q-34 235 -34 285l-70 -7q5 0 -23 7q-98 -14 -417 -14h-35q-83 0 -83 167q7 12 7 35v62q11 21 21 21h1031q69 0 69 -48
q0 -42 -7 -126l7 -14q-7 0 -7 -83q0 -104 -111 -104q-13 0 -77 21l-132 -21v-7q0 -11 28 -21l14 7q35 0 35 -14q257 -20 257 -56q-7 -12 -7 -27v-188q0 -35 -7 -104q7 0 7 -14q-7 -70 -21 -70h-586zM48 347h374q56 0 57.5 -39.5t11.5 -253.5q-18 -55 -63 -55h-41
q-43 0 -132 132q-14 -3 -14 -14v-28q0 -49 14 -76l-21 -14h-180q-20 0 -48 104q7 154 1 223q7 21 41 21z" />
    <glyph glyph-name="A" unicode="A" horiz-adv-x="1284" 
d="M63 1445q540 -7 810 -7h286l35 -7v-98l-7 -83h7q-7 -14 -7 -21q0 -224 -14 -538h7q-7 -13 -7 -21q0 -61 -7 -335q-10 -35 -49 -35q-27 0 -63 35q-64 0 -265 14q-72 -35 -91 -35q0 78 -42 112h-91l-41 7q-20 0 -35 -49q14 -216 14 -349q-36 -35 -63 -35h-91q-27 0 -63 35
l-42 -35h-216q-28 9 -28 63q28 291 35 530l-7 14l7 42l-7 14q7 12 7 28t-7 28q7 12 7 28v14q0 7 -7 7l7 14v419q0 29 7 76l-7 14q7 28 7 49l-7 14q7 12 7 28v21q0 7 -7 7q9 32 28 35zM314 1166l-7 -70v-28q0 -51 21 -56h161l14 -7q0 -84 -56 -84q-49 0 -49 -62
q0 -18 -14 -84l21 -35v-77q2 -14 14 -14h63q14 5 42 98l76 14q112 -25 112 -70q-7 -37 -7 -42l14 -7h70q21 0 49 196q-40 53 -42 97h-7l-70 -7q-11 16 -28 70l21 14h35q49 0 154 7q0 8 6 21q0 7 -6 7l6 35v77h-181q-11 0 -63 -133l-35 -7h-118q14 58 14 126q-7 13 -7 21
h-203zM796 314q230 -9 230 -56q86 0 133 -63q0 -195 -112 -195h-328q-42 0 -63 49q33 244 56 244q19 0 84 21z" />
    <glyph glyph-name="B" unicode="B" horiz-adv-x="1276" 
d="M818 1437q38 -7 55 -7q69 7 172 7t103 -28v-41q0 -28 7 -55q-7 -101 -27 -151q27 -261 34 -268l-28 -117v-7l7 -48l-20 -14h-186q-124 -16 -124 -27q42 -28 62 -28h69q32 0 69 -75q41 -20 144 -35q12 -25 21 -103q-28 -74 -35 -117l21 -165q-22 -151 -62 -151h-777
q-14 0 -14 14v13q21 26 21 49v68q0 59 -7 124l7 28q-27 151 -62 137h-7q28 -50 28 -165v-186q-16 -30 -69 -82h-131l-34 -7q-19 0 -34 406q12 12 158 27q36 -7 69 -7l6 14q-43 24 -165 41q-82 38 -82 179q-7 121 -7 144q0 27 28 117l-21 48l21 35l-21 412q7 0 7 7l14 -7
q25 14 55 14h412q143 0 323 7zM509 1162l-28 -261q7 -14 7 -21h131q55 30 55 76l14 7h316v13q-344 33 -344 55q-11 131 -27 131l-49 -7q-60 7 -75 7zM564 571h-35l-13 -7l13 -124q-34 -46 -34 -69v-41l7 -34h137q11 0 28 27v21q0 32 -7 69l7 27q-7 111 -21 138z" />
    <glyph glyph-name="C" unicode="C" horiz-adv-x="1285" 
d="M1164 1440q14 -7 21 -7v-41q0 -20 -41 -69q0 -172 -76 -172h-503q-48 0 -48 -200l-7 -28h-21q-43 42 -62 42q-41 -14 -165 -28l-117 14v-14q0 -21 124 -34h138q52 0 117 -111q0 -101 -49 -461q21 -49 62 -49h7q196 0 545 7q18 0 55 -55q-7 -81 -7 -117v-55q0 -62 -76 -62
h-34q-180 0 -180 83v69q0 9 -20 20h-14q0 -27 -28 -117v-48q-12 -7 -27 -7h-241q-31 0 -131 103q-44 -19 -131 -41q-18 -55 -62 -55h-103q-23 0 -49 21q-7 138 -13 551q27 76 62 76l41 -7l7 13v14q-117 14 -117 42q-7 37 -7 55q-7 462 -7 544q0 5 -7 41q23 76 69 76h654
q155 0 441 7z" />
    <glyph glyph-name="D" unicode="D" horiz-adv-x="1222" 
d="M-40 1443q239 -7 346 -7h761q41 0 69 -69q-7 -49 -7 -55q-7 -465 -7 -547q0 -76 -55 -76q-26 0 -69 -14v-14q2 -14 13 -14q37 7 42 7q23 0 55 -76q-7 -403 -14 -553q-25 -21 -48 -21h-104q-34 0 -69 55l-131 42q-87 -104 -125 -104h-242q-35 0 -35 14l7 41
q-27 91 -27 118h-14q-10 0 -21 -21v-69q0 -83 -180 -83h-34q-77 0 -77 62q0 102 -6 118q13 256 13 865v97q0 221 -48 221l-7 35v41q14 0 14 7zM444 1152q0 -55 -138 -55l-42 -35q2 -13 14 -13q33 0 69 7q90 -7 90 -49q0 -67 -7 -69q7 -97 7 -166v-491h159q63 9 63 62
q-49 327 -49 457q73 103 118 103h138q125 14 125 35v14q-104 -14 -125 -14q-26 0 -166 28q-8 0 -55 -42h-21l-7 42q0 186 -48 186h-125z" />
    <glyph glyph-name="E" unicode="E" horiz-adv-x="1255" 
d="M83 1434h1053q10 0 21 -21v-62q0 -23 7 -35q0 -166 -83 -166h-35q-317 0 -416 14q-27 -7 -48 -7l-69 7q0 -50 -35 -284l14 -7h28q263 0 263 -28l7 -28l-7 -34q0 -72 41 -97l14 7l-7 34q0 132 83 132q59 0 208 7q7 -13 7 -21q0 -58 7 -222q-26 -55 -69 -55h-180
q-35 0 -63 62h-7q0 -62 -48 -62h-256q-7 -116 -28 -249q7 -12 7 -28h540q14 -2 14 -14v-14l-35 -7h-103q-26 -13 -35 -41q7 0 7 -7l69 7h97q27 0 83 69h7q14 -2 14 -14v-76q0 -49 7 -152q-34 -42 -125 -42h-90q-69 0 -69 173v28h-7q-30 0 -35 -194h-388q-90 0 -166 173
q0 16 7 28q-7 47 -7 76v76q0 18 -28 21q-55 0 -145 -7q-83 14 -83 35v145q0 7 -7 7l7 14v7q0 28 -7 55q0 14 7 14q-7 69 -7 104v187q0 16 -7 28q0 35 256 55q0 12 35 14l14 -7q27 11 27 21v7l-131 21q-64 -21 -76 -21q-111 0 -111 104q0 83 -7 83l7 14q-7 83 -7 125
q0 48 69 48zM229 339q8 -11 20 -55l-7 -14q7 -93 7 -138h7l-7 -14v-35q0 -15 7 -28q0 -32 -97 -55h-111q-33 0 -48 312q35 21 55 21h139z" />
    <glyph glyph-name="F" unicode="F" horiz-adv-x="1308" 
d="M90 1433h1045q42 0 42 -55q0 -33 41 -118q-15 -104 -62 -104h-277q-10 0 -21 21v41q0 7 14 56q0 41 -76 41q-7 28 -62 97q-11 0 -35 -55q39 0 76 -97q35 -7 35 -28q-14 -76 -62 -76h-166l-49 7q-14 -23 -14 -42v-186q0 -56 63 -70h193q35 -1 35 -14l83 7h256q16 0 21 -48
q-21 -73 -21 -104q0 -9 28 -69q-14 -83 -62 -83h-312l-14 7q0 60 56 228v7q-7 14 -7 21h-14l-97 -201q-74 -69 -208 -69q-23 -533 -62 -533l-49 -14h-373q-35 18 -35 55v125q0 125 7 339q0 7 -7 7l7 49v297q0 309 69 554z" />
    <glyph glyph-name="G" unicode="G" horiz-adv-x="1289" 
d="M1162 1437q13 -7 21 -7v-41q0 -20 -42 -69q0 -172 -75 -172h-502q-48 0 -48 -199l-7 -28h-21q-43 42 -62 42q-41 -14 -165 -28l-117 14v-14q0 -21 124 -34h138q52 0 117 -110q0 -101 -49 -461q21 -48 62 -48h172q12 0 28 89q13 0 13 7l14 -7h14q51 0 192 14q53 0 138 -14
q15 2 41 42l-14 6q-13 0 -48 -13q-126 20 -144 20q-9 0 -69 -7q-158 17 -158 159v103l-7 41q18 89 69 89h316q56 0 96 -55v-419q-55 -103 -55 -220v-55q0 -62 -75 -62h-35q-149 0 -185 55h-48v-48l-35 -7h-240q-31 0 -131 103q-44 -19 -131 -41q-17 -55 -61 -55h-104
q-23 0 -48 21q-7 138 -13 550q27 75 61 75l42 -7l7 14v14q-117 14 -117 41q-7 38 -7 55q-7 462 -7 543q0 5 -7 41q23 76 69 76h653q155 0 440 7z" />
    <glyph glyph-name="H" unicode="H" horiz-adv-x="1311" 
d="M443 1434q70 -16 70 -62q0 -130 -132 -208q-59 7 -90 7q-19 -56 -104 -56q-99 0 -159 -41v-7q156 14 228 14h21q8 0 76 14h63q24 0 48 27h14q13 -242 62 -242q20 0 118 -21h64v256q0 49 97 49q0 7 13 7v21q-78 0 -104 34q26 208 56 208h374q62 -9 62 -62v-160
q0 -64 7 -180q0 -7 -7 -7l7 -83v-395l7 -41q0 -23 -55 -42l-104 14q-28 -10 -28 -21q-38 7 -55 7q-40 -25 -222 -55q-23 9 -42 27l-69 -6h-42q-39 0 -97 6l-139 -55q-97 7 -125 7q-131 -19 -131 -97v-111l7 -35h13q19 194 97 194l28 7q83 -20 97 -20q63 34 83 34
q36 0 49 -34q0 -15 -21 -181q21 -48 28 -48q0 -97 -49 -97h-256q-28 0 -28 83q0 7 14 83h-14q-48 -67 -48 -145q-26 -21 -49 -21h-41q-21 0 -28 55l7 49l-7 14q0 7 7 7l-7 83v256q0 7 -7 7l7 14v21q0 15 -7 27q7 13 7 28q0 16 -7 28q7 12 7 28v6q0 16 -7 28q7 12 7 28v7
q0 15 -7 28q7 12 7 27v28q0 7 -7 7l7 14v41q0 7 -7 7l7 14v194q0 16 7 28q0 7 -7 7q36 347 48 353h388zM1075 450q145 -36 145 -55v-7q-7 -265 -7 -291q0 -4 21 -69q-29 -28 -55 -28h-153q-41 0 -41 48h-35q-26 0 -76 -48h-97q-44 0 -62 83q20 181 62 243q0 35 187 62
q37 35 104 35q0 15 7 27z" />
    <glyph glyph-name="I" unicode="I" horiz-adv-x="589" 
d="M55 1433h374q56 0 56 -118v-90q0 -25 7 -62q0 -45 -63 -55h-69q-62 -33 -62 -42v-14q44 0 90 7q90 -14 90 -34v-132q0 -292 7 -838q-18 -55 -63 -55h-41q-43 0 -132 132q-14 -3 -14 -14v-28q0 -49 14 -76l-21 -14h-180q-20 0 -48 104q7 666 7 879l7 62l-7 14q7 128 7 215
v138q7 21 41 21z" />
    <glyph glyph-name="J" unicode="J" horiz-adv-x="1168" 
d="M656 1437h375q35 -18 35 -55v-125q0 -126 -7 -340q0 -7 7 -7l-7 -49v-299q0 -309 -69 -555l-14 -7h-893q-48 0 -48 90q-30 82 -35 84q15 104 62 104h122q10 0 21 -21v-42q-14 -49 -14 -55q0 -42 77 -42q6 -28 62 -97q11 0 35 55q-39 0 -77 98q-34 10 -34 20q9 84 62 84
h167l48 -7q14 23 14 41v209q14 205 14 222v28q0 48 -14 48l7 14v21q0 40 -7 49q23 520 63 520z" />
    <glyph glyph-name="K" unicode="K" horiz-adv-x="1279" 
d="M55 1443l35 -7h131q11 -1 69 -83v-186q-5 -159 -28 -159q7 -13 7 -21q-14 -62 -14 -69q0 -104 56 -138h20q90 21 97 21q46 -35 62 -35q0 7 7 7q-18 46 -55 76q-80 -14 -117 -14l-28 21q21 57 34 283q0 8 -6 21q6 75 6 131v69q0 23 -20 48v14q2 14 14 14h144q10 0 21 -21
q7 -261 7 -352q0 -13 35 -62l-14 -124l14 -7h34l83 -7q14 27 21 138q0 7 -7 21q14 122 14 262q36 152 76 152h345q55 0 55 -103q7 0 14 -49l-21 -166q7 -43 35 -117q0 -117 -76 -117q-104 0 -131 -90q-13 -7 -28 -7h-69q-35 0 -62 -34l124 -21h186l21 -14l-7 -48v-7
q0 -14 28 -111q-35 -218 -35 -331v-14q21 -90 21 -97v-34q0 -57 -76 -76h-131l-35 7v69q0 10 -20 21h-7q-14 -97 -55 -97h-104q-44 0 -55 55l7 14v14q0 48 -35 138q10 207 48 207q172 14 318 35v13h-318q-9 0 -41 69q-11 0 -28 14h-131q-7 -35 -14 -131q14 -52 14 -62
q-29 -28 -241 -28q-46 -18 -56 -41q7 0 7 -7q97 14 187 14q117 -9 117 -42q0 -255 -62 -255h-290q-38 0 -55 34q83 66 83 104v145h-7q-32 -17 -49 -159q-41 0 -103 -110h-14q21 461 28 490q-28 57 -35 124q0 325 104 325q0 8 131 27l20 21q-13 7 -20 7q-18 0 -55 -7
q-159 12 -159 35q15 400 34 400z" />
    <glyph glyph-name="L" unicode="L" horiz-adv-x="1168" 
d="M458 1423q40 0 63 -520q-7 -9 -7 -49v-21l7 -14q-14 0 -14 -48v-28q0 -17 14 -222v-209q0 -18 14 -41l48 7h167q53 0 62 -84q0 -10 -34 -20q-38 -98 -77 -98q24 -55 35 -55q56 69 62 97q77 0 77 42q0 6 -14 55v42q11 21 21 21h122q47 0 62 -104q-5 -2 -35 -84
q0 -90 -48 -90h-893l-14 7q-69 246 -69 555v299l-7 49q7 0 7 7q-7 214 -7 340v125q0 37 35 55h375z" />
    <glyph glyph-name="M" unicode="M" horiz-adv-x="1728" 
d="M173 1443h241q55 0 55 -97v-27q0 -14 -13 -69l20 -97v-7q-74 -14 -172 -21v-13h165l42 -7q48 27 69 27h7q35 -24 55 -69v-20q-21 -27 -21 -63q19 -110 42 -110q221 -7 290 -7q0 7 7 7q0 -28 20 -48l49 7h103q23 0 35 6l41 -6h21q207 0 207 -49l35 -7h103q52 -8 55 -27
v-691q-30 -48 -69 -48h-262q-159 0 -159 97q-7 0 -7 6v401l-7 48h-7q-36 0 -117 7l-7 -14q0 -297 -62 -297h-62q-44 0 -90 -6q-117 0 -117 41l-42 269q-93 9 -110 14q-29 0 -55 -186l-69 -49q-132 0 -132 42q-17 54 -34 76l7 34q0 168 -69 200q-138 0 -138 56l-21 297
q0 55 152 55q2 10 145 55v14h-7q-64 0 -180 -7q-83 11 -110 41q0 235 35 235q76 7 138 7zM1153 1436h428q29 0 35 -138q-10 -435 -49 -435q-7 -21 -41 -21h-48l-132 49q-67 324 -145 324q-69 0 -69 42l14 48q0 12 -7 124zM1201 1146q20 0 83 -255q-39 -21 -179 -21h-7
q-138 4 -138 34q10 0 20 21v14q0 29 -6 76q27 131 62 131h165zM76 642h48q54 0 76 -145q14 0 14 -34q-7 -14 -7 -21q26 -131 62 -131q221 -15 221 -49l7 -34l-14 -7h-20q-60 0 -125 -7q-58 0 -117 76l-14 7l-7 -14q32 -97 62 -97q221 0 221 -48q14 -45 14 -62
q-39 -76 -76 -76h-172q-214 0 -214 48q-14 84 -14 132v400q0 62 55 62z" />
    <glyph glyph-name="N" unicode="N" horiz-adv-x="1410" 
d="M76 1437h361q56 0 56 -153q7 0 14 -48q-9 -42 -104 -42v-21q109 -28 236 -35q12 -25 34 -159q-27 -49 -27 -70v-34h97q97 0 97 187l7 63h14q24 -28 48 -28h63q67 -14 76 -14h21q73 0 229 -14v7q-75 49 -229 49q-25 48 -49 48q-14 0 -76 -7q-132 78 -132 215q27 56 70 56
h381q29 0 42 -271q7 0 14 -76q0 -7 -7 -7l7 -35v-194q0 -7 7 -7l-7 -14v-42q0 -7 7 -7l-7 -13v-28q0 -16 7 -28q-7 -12 -7 -28v-7q0 -15 7 -27q-7 -13 -7 -28v-7q0 -16 7 -28q-7 -12 -7 -28q0 -15 7 -27q-7 -13 -7 -28v-21q0 -7 7 -7l-7 -14v-257q0 -29 -7 -76l7 -14l-7 -14
q7 -49 7 -55q-10 -49 -28 -49h-41q-63 0 -63 104q-24 63 -35 63h-14v-7q14 -63 14 -91q-5 -69 -27 -69h-257q-49 0 -49 90l28 56l-21 173q0 42 49 42q21 0 83 -35l104 21q97 -18 97 -97q21 -100 21 -104h14l7 34v112q0 80 -139 97q-112 -7 -125 -7q-56 28 -132 55
q-69 -7 -104 -7q-21 22 -48 181q0 23 76 42v6q0 25 -174 42h-34q-14 0 -14 -21q0 -38 7 -76q-10 -194 -42 -194q-143 20 -243 55q-5 0 -42 -7q0 11 -27 21q-85 -9 -98 -14q-43 9 -62 35l7 48v396q0 29 7 76l-7 14q7 117 7 181v160q9 62 62 62zM160 451q0 -41 90 -41
q13 -42 160 -42q104 -74 104 -278h7q-16 -90 -63 -90h-83q-18 0 -76 49h-49q-10 -49 -28 -49h-166q-38 0 -56 35q21 48 21 69q-7 239 -7 292q0 19 146 55z" />
    <glyph glyph-name="O" unicode="O" horiz-adv-x="1279" 
d="M34 1433h371q71 0 82 -89v-62q0 -10 20 -20h14q0 27 28 116v48q12 7 27 7h98q30 0 130 -103q44 19 130 41q18 55 62 55h103q23 0 48 -20q7 -149 14 -549q-28 -75 -62 -75l-41 6l-7 -13v-14q117 -14 117 -41q6 -38 6 -55q7 -460 7 -542q7 -36 7 -41q-23 -75 -68 -75h-613
q-123 0 -336 -7q-96 20 -96 27q-68 227 -68 542v295l-7 41l7 14q-7 212 -7 336v123q0 37 34 55zM501 1152q6 -196 13 -240q-7 -27 -7 -55v-21q0 -6 7 -6q-13 -25 -13 -55v-28q13 -202 13 -219v-206l7 -34h105q48 0 48 199q7 24 7 27h20q43 -41 62 -41q41 14 165 28l116 -14
v14q0 20 -123 34h-137q-53 0 -117 110q0 100 48 459q-20 48 -62 48h-152z" />
    <glyph glyph-name="P" unicode="P" horiz-adv-x="1196" 
d="M90 1433h951q55 0 55 -138q7 -38 7 -139q0 -55 -138 -55l-42 -35q3 -14 14 -14q33 0 69 7q90 -7 90 -48q0 -35 -6 -104l6 -69q-43 -125 -62 -125q0 -17 28 -76q-14 -83 -62 -83h-312q-14 0 -14 14l7 41h-21v35l-7 34q-74 -117 -92 -124q-42 7 -42 -28q-23 -512 -62 -512
l-49 -14h-373q-35 18 -35 55v125q0 125 7 339q0 7 -7 7l7 49v297q0 309 69 554zM584 1357q69 -35 69 -83h7v83l-41 55q-11 0 -35 -55zM533 1163q-14 -23 -14 -42v-186q0 -56 63 -70h71l7 35v256h-78z" />
    <glyph glyph-name="Q" unicode="Q" horiz-adv-x="1282" 
d="M37 1434h370q71 0 82 -89v-62q0 -10 21 -20h13q0 27 28 116v48q12 7 27 7h103q30 0 130 -103q44 19 130 41q18 55 62 55h103q22 0 47 -20q7 -149 14 -548q-27 -76 -61 -76l-42 7l-6 -13v-14q116 -14 116 -41q7 -38 7 -55q7 -460 7 -541l7 -34q-7 -27 -7 -55v-206
q-10 -68 -62 -68h-41q-43 0 -130 130q-14 -2 -14 -14v-27q0 -49 14 -75l-21 -14h-178q-22 0 -48 110v123q0 14 -13 14h-185q-124 0 -336 -7q-96 19 -96 27q-68 226 -68 541v295l-7 41l7 13q-7 212 -7 336v123q0 37 34 55zM503 1153q7 -195 14 -239q-7 -27 -7 -55v-21
q0 -7 7 -7q-14 -25 -14 -54v-28q14 -202 14 -219v-205l6 -35h110q48 0 48 199q7 24 7 27h20q43 -41 62 -41q41 14 164 28l117 -14v14q0 20 -124 34h-136q-53 0 -117 109q0 101 48 459q-20 48 -62 48h-157z" />
    <glyph glyph-name="R" unicode="R" horiz-adv-x="1285" 
d="M55 1443l35 -7h131q11 -1 69 -83v-186q-5 -159 -28 -159q7 -13 7 -21q-14 -62 -14 -69q0 -104 56 -138h20q90 21 97 21q46 -35 62 -35q0 7 7 7q-18 46 -55 76q-80 -14 -117 -14l-28 21q21 57 34 283q0 8 -6 21q6 75 6 131v69q0 23 -20 48v14q2 14 14 14h773q55 0 55 -103
q7 0 14 -49l-21 -166q7 -43 35 -117q0 -117 -76 -117q-104 0 -131 -90q-13 -7 -28 -7h-69q-35 0 -62 -34l124 -21h186l21 -14l-7 -48v-7q0 -14 28 -111q-35 -218 -35 -331v-14q21 -90 21 -97v-34q0 -57 -76 -76h-131l-35 7v69q0 10 -20 21h-7q-14 -97 -55 -97h-104
q-44 0 -55 55l7 14v14q0 48 -35 138q10 207 48 207q172 14 318 35v13h-318q-9 0 -41 69q-11 0 -28 14h-131q-7 -35 -14 -131q14 -52 14 -62q-29 -28 -241 -28q-46 -18 -56 -41q7 0 7 -7q97 14 187 14q117 -9 117 -42q0 -255 -62 -255h-290q-38 0 -55 34q83 66 83 104v145h-7
q-32 -17 -49 -159q-41 0 -103 -110h-14q21 461 28 490q-28 57 -35 124q0 325 104 325q0 8 131 27l20 21q-13 7 -20 7q-18 0 -55 -7q-159 12 -159 35q15 400 34 400zM504 1146l-7 -34v-42q0 -22 35 -69l-14 -124l14 -7h34l83 -7q14 27 21 138l-7 28q7 36 7 69v20q0 11 -28 28
h-138z" />
    <glyph glyph-name="S" unicode="S" 
d="M56 1432h111q44 0 97 -48l-7 -35v-35q0 -7 7 -7q-7 -13 -7 -21q0 -21 -7 -132h7q-8 -47 -21 -62l-34 6h-139q-38 0 -56 28q17 306 49 306zM926 1432h91q91 0 125 -42q-7 -104 -7 -152v-77q0 -14 -14 -14h-7q-56 70 -83 70h-98l-69 7q0 -7 -7 -7q10 -29 35 -42h104l35 -7
v-14q0 -14 -14 -14h-516l-7 -35q14 -62 27 -236h586q14 0 21 -69q0 -14 -7 -14q7 -70 7 -105v-187q0 -16 7 -28q0 -35 -257 -56q0 -14 -35 -14l-14 7q-28 -10 -28 -21v-7l132 -20q64 20 77 20q111 0 111 -104q0 -83 7 -83l-7 -14q7 -84 7 -125q0 -49 -69 -49h-1031
q-10 0 -21 21v62q0 24 -7 35q0 167 83 167h35q319 0 417 -14q28 7 23 7l70 -7q0 51 34 285l-14 7h-27q-239 0 -239 28l-7 28l7 35q0 71 -41 97l-14 -7l7 -35q0 -132 -84 -132q-59 0 -208 -7q-7 14 -7 21q0 59 -7 222l21 35v14q-21 0 -21 14v146q0 23 90 35q80 -7 153 -7
l14 21v76q0 29 7 77q-7 12 -7 27q82 174 153 174h377v-7q7 -187 35 -187h7v27q0 174 69 174z" />
    <glyph glyph-name="T" unicode="T" horiz-adv-x="1266" 
d="M41 1434h766l20 -14q-69 -145 -69 -172q16 0 21 -35q-14 -61 -14 -82q16 -49 21 -49l-7 -34v-993q-41 -55 -96 -55h-318q-48 0 -69 83l7 48v62q0 186 118 186q0 9 41 14q61 -7 76 -7l138 21q35 -14 55 -14l7 14q-7 0 -35 34q-95 -14 -151 -14q-133 14 -187 14h-13
q-7 0 -7 -7q-30 0 -35 76q7 472 7 600q21 135 55 172v14q-61 0 -96 -124l-35 -7q-53 0 -193 -7q-37 0 -48 145q14 131 41 131zM869 1434h103q120 0 186 -14v-20q0 -21 21 -56q-46 -179 -110 -179q0 -7 -7 -7q-214 0 -214 48q0 5 -21 97q32 131 42 131z" />
    <glyph glyph-name="U" unicode="U" horiz-adv-x="1215" 
d="M62 1437h69q158 0 158 -48q7 0 7 -7v-76q0 -37 27 -48q7 58 35 117q-14 42 -14 55l14 7h82q14 -2 14 -14q-7 -79 -14 -89q7 -213 7 -337v-584q0 -21 -96 -28l-69 7l-7 -14v-7q70 -34 83 -34h62q34 -18 34 -48h117q48 29 48 41q7 131 7 179l20 14h7l55 -49q94 28 193 28
h20q7 0 7 -7l14 7q49 -14 55 -14l7 14q-79 34 -144 34h-152q-89 80 -89 97q0 32 7 213l14 7l-7 13q41 235 41 344q0 59 -7 206h7q4 0 82 -82q13 15 124 41q33 55 41 55h159q27 0 27 -254q7 -231 7 -337q-36 -55 -41 -55h-42q-6 0 -6 7q-28 -11 -28 -21q48 -18 124 -27
q7 -49 7 -55q0 -306 13 -626q-34 -55 -41 -55h-818q-106 0 -323 -7l-7 14q0 73 48 96q14 107 14 206v220q0 16 -7 28l7 14l-7 13l7 14l-7 14l7 14q-7 12 -7 27h7l-7 14v7q0 7 7 7l-7 13v7q0 7 7 7l-7 14v14q0 6 7 6l-7 14v7q0 7 7 7l-7 14v7q0 6 7 6l-7 14v7q0 7 7 7l-7 14
v7q0 6 7 6l-7 14v172q0 79 -7 241h7l-7 13v7q0 7 7 7q0 7 -7 7q0 117 62 117z" />
    <glyph glyph-name="V" unicode="V" horiz-adv-x="1473" 
d="M968 1446h41q42 0 128 -128q13 0 13 14v27q0 47 -13 74l20 13h175q22 0 47 -108v-255q0 -101 -7 -182q7 -45 7 -141q0 -82 -14 -202l7 -13q0 -168 -74 -168h-34q-121 44 -121 60q-11 74 -27 74h-6q-10 0 -20 -20l6 -67q-40 -20 -141 -20h-20q-114 4 -114 33q9 0 20 20
q0 44 -7 88q20 128 54 128h27v6q0 170 -7 713q17 54 60 54zM54 1426h363q54 0 54 -115v-87q0 -24 7 -60q0 -44 -61 -54h-67q-61 -32 -61 -41v-13q43 0 88 7q87 -14 87 -34v-363l7 -14l33 7q47 -33 47 -81q-20 -56 -20 -74q20 -100 41 -100l228 -7q13 7 21 7q0 -41 20 -41
q92 0 127 7l189 -14q-94 -59 -94 -127v-61q0 -54 -95 -54l-13 -13l-34 7h-6q-7 0 -7 -7l-13 7h-27q-12 0 -27 -101q-12 -7 -27 -7h-236l-33 7v27q0 74 -41 74q-87 0 -87 67q0 94 -40 94h-148q-47 0 -47 47v101q0 10 -21 20h-20q-134 0 -134 41v221q0 23 -7 34l7 40v202
q0 32 6 67q0 8 -6 21q6 124 6 208v135q7 20 41 20z" />
    <glyph glyph-name="W" unicode="W" horiz-adv-x="1715" 
d="M248 1437h171q47 0 76 -89q0 -83 -76 -83q-192 0 -192 -41q-28 -69 -28 -76q7 0 7 -7q77 76 103 76q4 0 28 7q65 -7 124 -7h20q14 -2 14 -14q0 -22 -27 -62v-41q0 -17 -14 -62q34 -172 48 -172q124 0 124 35q23 282 62 282q66 0 89 6q45 -6 89 -6h55q69 0 69 -241v-62
l14 -7q70 7 110 7q14 0 14 14v433q27 96 96 96q2 7 69 7h261q38 0 69 -48v-688q0 -18 -55 -27h-103q-23 0 -76 -48q-44 0 -90 -7v-28q-41 -92 -89 -281l-14 -7h-158q-47 0 -62 117l-7 13q7 47 7 76v14q-24 19 -41 62q-38 0 -282 -7q-34 -65 -34 -110q0 -36 20 -62v-21
q-19 -44 -55 -69h-6q-57 13 -62 28l-48 -7h-165v-14q97 -7 171 -20v-7q-20 -93 -20 -103q14 -45 14 -62v-28q0 -96 -55 -96h-241q-158 0 -158 28l-14 213q32 32 117 41q101 -7 179 -7v7q0 12 -90 34q-77 42 -185 42l-21 41q15 292 28 330q-7 179 -7 282v247q0 172 75 172
q79 7 152 7zM1471 598h49q75 0 75 -192q14 -209 14 -268q-7 -131 -34 -131h-427q-14 0 -14 14q7 93 7 130q-13 23 -13 42q0 41 96 41q52 29 103 268q0 69 96 69q11 27 48 27z" />
    <glyph glyph-name="X" unicode="X" horiz-adv-x="1314" 
d="M1131 1433q55 0 55 -103q7 0 14 -48l-21 -164q7 -43 35 -117q0 -117 -76 -117q-103 0 -130 -89q-12 -7 -28 -7h-68q-34 0 -62 -34l124 -20h185l20 -14l-7 -48v-7q0 -14 28 -110q-34 -216 -34 -329v-13q20 -90 20 -96v-35q0 -56 -75 -75h-131l-34 7v68q0 10 -20 21h-7
q-13 -96 -55 -96h-103q-43 0 -55 55l7 13v14q0 48 -34 137q9 206 48 206q170 14 315 34v14h-315l-48 69l-21 13h-48l-82 7q-14 -26 -21 -137q0 -7 7 -21q-13 -121 -13 -260q-37 -151 -76 -151h-343q-55 0 -55 103q-6 0 -13 48l20 164q-7 43 -34 117q0 117 75 117
q104 0 131 89q12 7 27 7h69q34 0 61 34l-123 20h-185l-21 14l7 48v7q0 14 -27 110q34 216 34 329v13q-21 90 -21 96v35q0 56 76 75h130l34 -7v-68q0 -10 21 -21h7q13 96 55 96h103q43 0 54 -55l-6 -13v-14q0 -48 34 -137q-10 -206 -48 -206q-170 -14 -316 -34v-14h316
l48 -69l20 -13h48l83 -7q13 26 20 137q0 7 -7 21q14 121 14 260q36 151 75 151h343z" />
    <glyph glyph-name="Y" unicode="Y" horiz-adv-x="1305" 
d="M1123 1433q55 0 55 -103q7 0 14 -49l-21 -165q7 -43 35 -117q0 -117 -76 -117q-104 0 -131 -90q-12 -7 -28 -7h-68q-35 0 -62 -34l124 -21h186l20 -13l-7 -49v-7q0 -14 28 -110q-35 -224 -35 -317q14 -34 21 -34q0 -8 -7 -21q7 -72 7 -117q-28 -62 -69 -62h-1026
q-49 0 -49 90q-29 80 -34 82q15 104 62 104h276q9 0 20 -21v-41q-14 -50 -14 -56q0 -41 76 -41q7 -27 62 -96q11 0 35 55q-39 0 -76 96q-35 11 -35 21q10 83 62 83h207q0 28 21 186v34q0 31 -42 62q-174 7 -254 7h-221l-14 7q13 69 55 69h69q35 0 62 34l-124 21h-186l-20 14
l7 48v7q0 14 -28 110q34 218 34 331v13q-20 90 -20 97v34q0 57 76 76h130l35 -7v-69q0 -10 21 -20h6q14 96 56 96h103q44 0 55 -55l-7 -14v-14q0 -48 35 -137q-10 -207 -49 -207q-170 -14 -317 -34v-14h317l49 -69l20 -14h48l83 -7q14 27 21 138q0 7 -7 21q14 122 14 261
q36 152 76 152h344z" />
    <glyph glyph-name="Z" unicode="Z" 
d="M7 306q18 28 56 28h139l34 7q13 -16 21 -63h-7q7 -110 7 -132q0 -7 7 -21q-7 0 -7 -7v-35l7 -34q-53 -49 -97 -49h-111q-32 0 -49 306zM857 174v28h-7q-28 0 -35 -188v-7h-377q-71 0 -153 174q0 15 7 28q-7 47 -7 76v77l-14 20q-73 0 -153 -7q-90 12 -90 35v146
q0 14 21 14v14l-21 35q7 164 7 222q0 8 7 21q149 -7 208 -7q84 0 84 -132l-7 -35l14 -7q41 26 41 98l-7 34l7 28q0 28 239 28h27l14 7q-34 235 -34 285l-70 -7q5 0 -23 7q-98 -14 -417 -14h-35q-83 0 -83 167q7 12 7 35v62q11 21 21 21h1031q69 0 69 -48q0 -42 -7 -126
l7 -14q-7 0 -7 -83q0 -104 -111 -104q-13 0 -77 21l-132 -21v-7q0 -11 28 -21l14 7q35 0 35 -14q257 -20 257 -56q-7 -12 -7 -27v-188q0 -35 -7 -104q7 0 7 -14q-7 -70 -21 -70h-586q-13 -174 -27 -236l7 -35h516q14 0 14 -14v-14l-35 -7h-104q-25 -13 -35 -41q7 0 7 -7
l69 7h98q27 0 83 69h7q14 0 14 -14v-76q0 -49 7 -153q-34 -42 -125 -42h-91q-69 0 -69 174z" />
    <glyph glyph-name="bracketleft" unicode="[" horiz-adv-x="758" 
 />
    <glyph glyph-name="backslash" unicode="\" horiz-adv-x="569" 
 />
    <glyph glyph-name="bracketright" unicode="]" horiz-adv-x="758" 
 />
    <glyph glyph-name="asciicircum" unicode="^" horiz-adv-x="1014" 
 />
    <glyph glyph-name="underscore" unicode="_" horiz-adv-x="1024" 
 />
    <glyph glyph-name="grave" unicode="`" horiz-adv-x="1024" 
 />
    <glyph glyph-name="a" unicode="a" horiz-adv-x="1284" 
d="M63 1445q540 -7 810 -7h286l35 -7v-98l-7 -83h7q-7 -14 -7 -21q0 -224 -14 -538h7q-7 -13 -7 -21q0 -61 -7 -335q-10 -35 -49 -35q-27 0 -63 35q-64 0 -265 14q-72 -35 -91 -35q0 78 -42 112h-91l-41 7q-20 0 -35 -49q14 -216 14 -349q-36 -35 -63 -35h-91q-27 0 -63 35
l-42 -35h-216q-28 9 -28 63q28 291 35 530l-7 14l7 42l-7 14q7 12 7 28t-7 28q7 12 7 28v14q0 7 -7 7l7 14v419q0 29 7 76l-7 14q7 28 7 49l-7 14q7 12 7 28v21q0 7 -7 7q9 32 28 35zM314 1166l-7 -70v-28q0 -51 21 -56h161l14 -7q0 -84 -56 -84q-49 0 -49 -62
q0 -18 -14 -84l21 -35v-77q2 -14 14 -14h63q14 5 42 98l76 14q112 -25 112 -70q-7 -37 -7 -42l14 -7h70q21 0 49 196q-40 53 -42 97h-7l-70 -7q-11 16 -28 70l21 14h35q49 0 154 7q0 8 6 21q0 7 -6 7l6 35v77h-181q-11 0 -63 -133l-35 -7h-118q14 58 14 126q-7 13 -7 21
h-203zM796 314q230 -9 230 -56q86 0 133 -63q0 -195 -112 -195h-328q-42 0 -63 49q33 244 56 244q19 0 84 21z" />
    <glyph glyph-name="b" unicode="b" horiz-adv-x="1276" 
d="M818 1437q38 -7 55 -7q69 7 172 7t103 -28v-41q0 -28 7 -55q-7 -101 -27 -151q27 -261 34 -268l-28 -117v-7l7 -48l-20 -14h-186q-124 -16 -124 -27q42 -28 62 -28h69q32 0 69 -75q41 -20 144 -35q12 -25 21 -103q-28 -74 -35 -117l21 -165q-22 -151 -62 -151h-777
q-14 0 -14 14v13q21 26 21 49v68q0 59 -7 124l7 28q-27 151 -62 137h-7q28 -50 28 -165v-186q-16 -30 -69 -82h-131l-34 -7q-19 0 -34 406q12 12 158 27q36 -7 69 -7l6 14q-43 24 -165 41q-82 38 -82 179q-7 121 -7 144q0 27 28 117l-21 48l21 35l-21 412q7 0 7 7l14 -7
q25 14 55 14h412q143 0 323 7zM509 1162l-28 -261q7 -14 7 -21h131q55 30 55 76l14 7h316v13q-344 33 -344 55q-11 131 -27 131l-49 -7q-60 7 -75 7zM564 571h-35l-13 -7l13 -124q-34 -46 -34 -69v-41l7 -34h137q11 0 28 27v21q0 32 -7 69l7 27q-7 111 -21 138z" />
    <glyph glyph-name="c" unicode="c" horiz-adv-x="1285" 
d="M1164 1440q14 -7 21 -7v-41q0 -20 -41 -69q0 -172 -76 -172h-503q-48 0 -48 -200l-7 -28h-21q-43 42 -62 42q-41 -14 -165 -28l-117 14v-14q0 -21 124 -34h138q52 0 117 -111q0 -101 -49 -461q21 -49 62 -49h7q196 0 545 7q18 0 55 -55q-7 -81 -7 -117v-55q0 -62 -76 -62
h-34q-180 0 -180 83v69q0 9 -20 20h-14q0 -27 -28 -117v-48q-12 -7 -27 -7h-241q-31 0 -131 103q-44 -19 -131 -41q-18 -55 -62 -55h-103q-23 0 -49 21q-7 138 -13 551q27 76 62 76l41 -7l7 13v14q-117 14 -117 42q-7 37 -7 55q-7 462 -7 544q0 5 -7 41q23 76 69 76h654
q155 0 441 7z" />
    <glyph glyph-name="d" unicode="d" horiz-adv-x="1222" 
d="M-40 1443q239 -7 346 -7h761q41 0 69 -69q-7 -49 -7 -55q-7 -465 -7 -547q0 -76 -55 -76q-26 0 -69 -14v-14q2 -14 13 -14q37 7 42 7q23 0 55 -76q-7 -403 -14 -553q-25 -21 -48 -21h-104q-34 0 -69 55l-131 42q-87 -104 -125 -104h-242q-35 0 -35 14l7 41
q-27 91 -27 118h-14q-10 0 -21 -21v-69q0 -83 -180 -83h-34q-77 0 -77 62q0 102 -6 118q13 256 13 865v97q0 221 -48 221l-7 35v41q14 0 14 7zM444 1152q0 -55 -138 -55l-42 -35q2 -13 14 -13q33 0 69 7q90 -7 90 -49q0 -67 -7 -69q7 -97 7 -166v-491h159q63 9 63 62
q-49 327 -49 457q73 103 118 103h138q125 14 125 35v14q-104 -14 -125 -14q-26 0 -166 28q-8 0 -55 -42h-21l-7 42q0 186 -48 186h-125z" />
    <glyph glyph-name="e" unicode="e" horiz-adv-x="1255" 
d="M83 1434h1053q10 0 21 -21v-62q0 -23 7 -35q0 -166 -83 -166h-35q-317 0 -416 14q-27 -7 -48 -7l-69 7q0 -50 -35 -284l14 -7h28q263 0 263 -28l7 -28l-7 -34q0 -72 41 -97l14 7l-7 34q0 132 83 132q59 0 208 7q7 -13 7 -21q0 -58 7 -222q-26 -55 -69 -55h-180
q-35 0 -63 62h-7q0 -62 -48 -62h-256q-7 -116 -28 -249q7 -12 7 -28h540q14 -2 14 -14v-14l-35 -7h-103q-26 -13 -35 -41q7 0 7 -7l69 7h97q27 0 83 69h7q14 -2 14 -14v-76q0 -49 7 -152q-34 -42 -125 -42h-90q-69 0 -69 173v28h-7q-30 0 -35 -194h-388q-90 0 -166 173
q0 16 7 28q-7 47 -7 76v76q0 18 -28 21q-55 0 -145 -7q-83 14 -83 35v145q0 7 -7 7l7 14v7q0 28 -7 55q0 14 7 14q-7 69 -7 104v187q0 16 -7 28q0 35 256 55q0 12 35 14l14 -7q27 11 27 21v7l-131 21q-64 -21 -76 -21q-111 0 -111 104q0 83 -7 83l7 14q-7 83 -7 125
q0 48 69 48zM229 339q8 -11 20 -55l-7 -14q7 -93 7 -138h7l-7 -14v-35q0 -15 7 -28q0 -32 -97 -55h-111q-33 0 -48 312q35 21 55 21h139z" />
    <glyph glyph-name="f" unicode="f" horiz-adv-x="1308" 
d="M90 1433h1045q42 0 42 -55q0 -33 41 -118q-15 -104 -62 -104h-277q-10 0 -21 21v41q0 7 14 56q0 41 -76 41q-7 28 -62 97q-11 0 -35 -55q39 0 76 -97q35 -7 35 -28q-14 -76 -62 -76h-166l-49 7q-14 -23 -14 -42v-186q0 -56 63 -70h193q35 -1 35 -14l83 7h256q16 0 21 -48
q-21 -73 -21 -104q0 -9 28 -69q-14 -83 -62 -83h-312l-14 7q0 60 56 228v7q-7 14 -7 21h-14l-97 -201q-74 -69 -208 -69q-23 -533 -62 -533l-49 -14h-373q-35 18 -35 55v125q0 125 7 339q0 7 -7 7l7 49v297q0 309 69 554z" />
    <glyph glyph-name="g" unicode="g" horiz-adv-x="1289" 
d="M1162 1437q13 -7 21 -7v-41q0 -20 -42 -69q0 -172 -75 -172h-502q-48 0 -48 -199l-7 -28h-21q-43 42 -62 42q-41 -14 -165 -28l-117 14v-14q0 -21 124 -34h138q52 0 117 -110q0 -101 -49 -461q21 -48 62 -48h172q12 0 28 89q13 0 13 7l14 -7h14q51 0 192 14q53 0 138 -14
q15 2 41 42l-14 6q-13 0 -48 -13q-126 20 -144 20q-9 0 -69 -7q-158 17 -158 159v103l-7 41q18 89 69 89h316q56 0 96 -55v-419q-55 -103 -55 -220v-55q0 -62 -75 -62h-35q-149 0 -185 55h-48v-48l-35 -7h-240q-31 0 -131 103q-44 -19 -131 -41q-17 -55 -61 -55h-104
q-23 0 -48 21q-7 138 -13 550q27 75 61 75l42 -7l7 14v14q-117 14 -117 41q-7 38 -7 55q-7 462 -7 543q0 5 -7 41q23 76 69 76h653q155 0 440 7z" />
    <glyph glyph-name="h" unicode="h" horiz-adv-x="1311" 
d="M443 1434q70 -16 70 -62q0 -130 -132 -208q-59 7 -90 7q-19 -56 -104 -56q-99 0 -159 -41v-7q156 14 228 14h21q8 0 76 14h63q24 0 48 27h14q13 -242 62 -242q20 0 118 -21h64v256q0 49 97 49q0 7 13 7v21q-78 0 -104 34q26 208 56 208h374q62 -9 62 -62v-160
q0 -64 7 -180q0 -7 -7 -7l7 -83v-395l7 -41q0 -23 -55 -42l-104 14q-28 -10 -28 -21q-38 7 -55 7q-40 -25 -222 -55q-23 9 -42 27l-69 -6h-42q-39 0 -97 6l-139 -55q-97 7 -125 7q-131 -19 -131 -97v-111l7 -35h13q19 194 97 194l28 7q83 -20 97 -20q63 34 83 34
q36 0 49 -34q0 -15 -21 -181q21 -48 28 -48q0 -97 -49 -97h-256q-28 0 -28 83q0 7 14 83h-14q-48 -67 -48 -145q-26 -21 -49 -21h-41q-21 0 -28 55l7 49l-7 14q0 7 7 7l-7 83v256q0 7 -7 7l7 14v21q0 15 -7 27q7 13 7 28q0 16 -7 28q7 12 7 28v6q0 16 -7 28q7 12 7 28v7
q0 15 -7 28q7 12 7 27v28q0 7 -7 7l7 14v41q0 7 -7 7l7 14v194q0 16 7 28q0 7 -7 7q36 347 48 353h388zM1075 450q145 -36 145 -55v-7q-7 -265 -7 -291q0 -4 21 -69q-29 -28 -55 -28h-153q-41 0 -41 48h-35q-26 0 -76 -48h-97q-44 0 -62 83q20 181 62 243q0 35 187 62
q37 35 104 35q0 15 7 27z" />
    <glyph glyph-name="i" unicode="i" horiz-adv-x="589" 
d="M55 1433h374q56 0 56 -118v-90q0 -25 7 -62q0 -45 -63 -55h-69q-62 -33 -62 -42v-14q44 0 90 7q90 -14 90 -34v-132q0 -292 7 -838q-18 -55 -63 -55h-41q-43 0 -132 132q-14 -3 -14 -14v-28q0 -49 14 -76l-21 -14h-180q-20 0 -48 104q7 666 7 879l7 62l-7 14q7 128 7 215
v138q7 21 41 21z" />
    <glyph glyph-name="j" unicode="j" horiz-adv-x="1168" 
d="M656 1437h375q35 -18 35 -55v-125q0 -126 -7 -340q0 -7 7 -7l-7 -49v-299q0 -309 -69 -555l-14 -7h-893q-48 0 -48 90q-30 82 -35 84q15 104 62 104h122q10 0 21 -21v-42q-14 -49 -14 -55q0 -42 77 -42q6 -28 62 -97q11 0 35 55q-39 0 -77 98q-34 10 -34 20q9 84 62 84
h167l48 -7q14 23 14 41v209q14 205 14 222v28q0 48 -14 48l7 14v21q0 40 -7 49q23 520 63 520z" />
    <glyph glyph-name="k" unicode="k" horiz-adv-x="1279" 
d="M55 1443l35 -7h131q11 -1 69 -83v-186q-5 -159 -28 -159q7 -13 7 -21q-14 -62 -14 -69q0 -104 56 -138h20q90 21 97 21q46 -35 62 -35q0 7 7 7q-18 46 -55 76q-80 -14 -117 -14l-28 21q21 57 34 283q0 8 -6 21q6 75 6 131v69q0 23 -20 48v14q2 14 14 14h144q10 0 21 -21
q7 -261 7 -352q0 -13 35 -62l-14 -124l14 -7h34l83 -7q14 27 21 138q0 7 -7 21q14 122 14 262q36 152 76 152h345q55 0 55 -103q7 0 14 -49l-21 -166q7 -43 35 -117q0 -117 -76 -117q-104 0 -131 -90q-13 -7 -28 -7h-69q-35 0 -62 -34l124 -21h186l21 -14l-7 -48v-7
q0 -14 28 -111q-35 -218 -35 -331v-14q21 -90 21 -97v-34q0 -57 -76 -76h-131l-35 7v69q0 10 -20 21h-7q-14 -97 -55 -97h-104q-44 0 -55 55l7 14v14q0 48 -35 138q10 207 48 207q172 14 318 35v13h-318q-9 0 -41 69q-11 0 -28 14h-131q-7 -35 -14 -131q14 -52 14 -62
q-29 -28 -241 -28q-46 -18 -56 -41q7 0 7 -7q97 14 187 14q117 -9 117 -42q0 -255 -62 -255h-290q-38 0 -55 34q83 66 83 104v145h-7q-32 -17 -49 -159q-41 0 -103 -110h-14q21 461 28 490q-28 57 -35 124q0 325 104 325q0 8 131 27l20 21q-13 7 -20 7q-18 0 -55 -7
q-159 12 -159 35q15 400 34 400z" />
    <glyph glyph-name="l" unicode="l" horiz-adv-x="1168" 
d="M458 1423q40 0 63 -520q-7 -9 -7 -49v-21l7 -14q-14 0 -14 -48v-28q0 -17 14 -222v-209q0 -18 14 -41l48 7h167q53 0 62 -84q0 -10 -34 -20q-38 -98 -77 -98q24 -55 35 -55q56 69 62 97q77 0 77 42q0 6 -14 55v42q11 21 21 21h122q47 0 62 -104q-5 -2 -35 -84
q0 -90 -48 -90h-893l-14 7q-69 246 -69 555v299l-7 49q7 0 7 7q-7 214 -7 340v125q0 37 35 55h375z" />
    <glyph glyph-name="m" unicode="m" horiz-adv-x="1728" 
d="M173 1443h241q55 0 55 -97v-27q0 -14 -13 -69l20 -97v-7q-74 -14 -172 -21v-13h165l42 -7q48 27 69 27h7q35 -24 55 -69v-20q-21 -27 -21 -63q19 -110 42 -110q221 -7 290 -7q0 7 7 7q0 -28 20 -48l49 7h103q23 0 35 6l41 -6h21q207 0 207 -49l35 -7h103q52 -8 55 -27
v-691q-30 -48 -69 -48h-262q-159 0 -159 97q-7 0 -7 6v401l-7 48h-7q-36 0 -117 7l-7 -14q0 -297 -62 -297h-62q-44 0 -90 -6q-117 0 -117 41l-42 269q-93 9 -110 14q-29 0 -55 -186l-69 -49q-132 0 -132 42q-17 54 -34 76l7 34q0 168 -69 200q-138 0 -138 56l-21 297
q0 55 152 55q2 10 145 55v14h-7q-64 0 -180 -7q-83 11 -110 41q0 235 35 235q76 7 138 7zM1153 1436h428q29 0 35 -138q-10 -435 -49 -435q-7 -21 -41 -21h-48l-132 49q-67 324 -145 324q-69 0 -69 42l14 48q0 12 -7 124zM1201 1146q20 0 83 -255q-39 -21 -179 -21h-7
q-138 4 -138 34q10 0 20 21v14q0 29 -6 76q27 131 62 131h165zM76 642h48q54 0 76 -145q14 0 14 -34q-7 -14 -7 -21q26 -131 62 -131q221 -15 221 -49l7 -34l-14 -7h-20q-60 0 -125 -7q-58 0 -117 76l-14 7l-7 -14q32 -97 62 -97q221 0 221 -48q14 -45 14 -62
q-39 -76 -76 -76h-172q-214 0 -214 48q-14 84 -14 132v400q0 62 55 62z" />
    <glyph glyph-name="n" unicode="n" horiz-adv-x="1410" 
d="M76 1437h361q56 0 56 -153q7 0 14 -48q-9 -42 -104 -42v-21q109 -28 236 -35q12 -25 34 -159q-27 -49 -27 -70v-34h97q97 0 97 187l7 63h14q24 -28 48 -28h63q67 -14 76 -14h21q73 0 229 -14v7q-75 49 -229 49q-25 48 -49 48q-14 0 -76 -7q-132 78 -132 215q27 56 70 56
h381q29 0 42 -271q7 0 14 -76q0 -7 -7 -7l7 -35v-194q0 -7 7 -7l-7 -14v-42q0 -7 7 -7l-7 -13v-28q0 -16 7 -28q-7 -12 -7 -28v-7q0 -15 7 -27q-7 -13 -7 -28v-7q0 -16 7 -28q-7 -12 -7 -28q0 -15 7 -27q-7 -13 -7 -28v-21q0 -7 7 -7l-7 -14v-257q0 -29 -7 -76l7 -14l-7 -14
q7 -49 7 -55q-10 -49 -28 -49h-41q-63 0 -63 104q-24 63 -35 63h-14v-7q14 -63 14 -91q-5 -69 -27 -69h-257q-49 0 -49 90l28 56l-21 173q0 42 49 42q21 0 83 -35l104 21q97 -18 97 -97q21 -100 21 -104h14l7 34v112q0 80 -139 97q-112 -7 -125 -7q-56 28 -132 55
q-69 -7 -104 -7q-21 22 -48 181q0 23 76 42v6q0 25 -174 42h-34q-14 0 -14 -21q0 -38 7 -76q-10 -194 -42 -194q-143 20 -243 55q-5 0 -42 -7q0 11 -27 21q-85 -9 -98 -14q-43 9 -62 35l7 48v396q0 29 7 76l-7 14q7 117 7 181v160q9 62 62 62zM160 451q0 -41 90 -41
q13 -42 160 -42q104 -74 104 -278h7q-16 -90 -63 -90h-83q-18 0 -76 49h-49q-10 -49 -28 -49h-166q-38 0 -56 35q21 48 21 69q-7 239 -7 292q0 19 146 55z" />
    <glyph glyph-name="o" unicode="o" horiz-adv-x="1279" 
d="M34 1433h371q71 0 82 -89v-62q0 -10 20 -20h14q0 27 28 116v48q12 7 27 7h98q30 0 130 -103q44 19 130 41q18 55 62 55h103q23 0 48 -20q7 -149 14 -549q-28 -75 -62 -75l-41 6l-7 -13v-14q117 -14 117 -41q6 -38 6 -55q7 -460 7 -542q7 -36 7 -41q-23 -75 -68 -75h-613
q-123 0 -336 -7q-96 20 -96 27q-68 227 -68 542v295l-7 41l7 14q-7 212 -7 336v123q0 37 34 55zM501 1152q6 -196 13 -240q-7 -27 -7 -55v-21q0 -6 7 -6q-13 -25 -13 -55v-28q13 -202 13 -219v-206l7 -34h105q48 0 48 199q7 24 7 27h20q43 -41 62 -41q41 14 165 28l116 -14
v14q0 20 -123 34h-137q-53 0 -117 110q0 100 48 459q-20 48 -62 48h-152z" />
    <glyph glyph-name="p" unicode="p" horiz-adv-x="1196" 
d="M90 1433h951q55 0 55 -138q7 -38 7 -139q0 -55 -138 -55l-42 -35q3 -14 14 -14q33 0 69 7q90 -7 90 -48q0 -35 -6 -104l6 -69q-43 -125 -62 -125q0 -17 28 -76q-14 -83 -62 -83h-312q-14 0 -14 14l7 41h-21v35l-7 34q-74 -117 -92 -124q-42 7 -42 -28q-23 -512 -62 -512
l-49 -14h-373q-35 18 -35 55v125q0 125 7 339q0 7 -7 7l7 49v297q0 309 69 554zM584 1357q69 -35 69 -83h7v83l-41 55q-11 0 -35 -55zM533 1163q-14 -23 -14 -42v-186q0 -56 63 -70h71l7 35v256h-78z" />
    <glyph glyph-name="q" unicode="q" horiz-adv-x="1282" 
d="M37 1434h370q71 0 82 -89v-62q0 -10 21 -20h13q0 27 28 116v48q12 7 27 7h103q30 0 130 -103q44 19 130 41q18 55 62 55h103q22 0 47 -20q7 -149 14 -548q-27 -76 -61 -76l-42 7l-6 -13v-14q116 -14 116 -41q7 -38 7 -55q7 -460 7 -541l7 -34q-7 -27 -7 -55v-206
q-10 -68 -62 -68h-41q-43 0 -130 130q-14 -2 -14 -14v-27q0 -49 14 -75l-21 -14h-178q-22 0 -48 110v123q0 14 -13 14h-185q-124 0 -336 -7q-96 19 -96 27q-68 226 -68 541v295l-7 41l7 13q-7 212 -7 336v123q0 37 34 55zM503 1153q7 -195 14 -239q-7 -27 -7 -55v-21
q0 -7 7 -7q-14 -25 -14 -54v-28q14 -202 14 -219v-205l6 -35h110q48 0 48 199q7 24 7 27h20q43 -41 62 -41q41 14 164 28l117 -14v14q0 20 -124 34h-136q-53 0 -117 109q0 101 48 459q-20 48 -62 48h-157z" />
    <glyph glyph-name="r" unicode="r" horiz-adv-x="1285" 
d="M55 1443l35 -7h131q11 -1 69 -83v-186q-5 -159 -28 -159q7 -13 7 -21q-14 -62 -14 -69q0 -104 56 -138h20q90 21 97 21q46 -35 62 -35q0 7 7 7q-18 46 -55 76q-80 -14 -117 -14l-28 21q21 57 34 283q0 8 -6 21q6 75 6 131v69q0 23 -20 48v14q2 14 14 14h773q55 0 55 -103
q7 0 14 -49l-21 -166q7 -43 35 -117q0 -117 -76 -117q-104 0 -131 -90q-13 -7 -28 -7h-69q-35 0 -62 -34l124 -21h186l21 -14l-7 -48v-7q0 -14 28 -111q-35 -218 -35 -331v-14q21 -90 21 -97v-34q0 -57 -76 -76h-131l-35 7v69q0 10 -20 21h-7q-14 -97 -55 -97h-104
q-44 0 -55 55l7 14v14q0 48 -35 138q10 207 48 207q172 14 318 35v13h-318q-9 0 -41 69q-11 0 -28 14h-131q-7 -35 -14 -131q14 -52 14 -62q-29 -28 -241 -28q-46 -18 -56 -41q7 0 7 -7q97 14 187 14q117 -9 117 -42q0 -255 -62 -255h-290q-38 0 -55 34q83 66 83 104v145h-7
q-32 -17 -49 -159q-41 0 -103 -110h-14q21 461 28 490q-28 57 -35 124q0 325 104 325q0 8 131 27l20 21q-13 7 -20 7q-18 0 -55 -7q-159 12 -159 35q15 400 34 400zM504 1146l-7 -34v-42q0 -22 35 -69l-14 -124l14 -7h34l83 -7q14 27 21 138l-7 28q7 36 7 69v20q0 11 -28 28
h-138z" />
    <glyph glyph-name="s" unicode="s" 
d="M56 1432h111q44 0 97 -48l-7 -35v-35q0 -7 7 -7q-7 -13 -7 -21q0 -21 -7 -132h7q-8 -47 -21 -62l-34 6h-139q-38 0 -56 28q17 306 49 306zM926 1432h91q91 0 125 -42q-7 -104 -7 -152v-77q0 -14 -14 -14h-7q-56 70 -83 70h-98l-69 7q0 -7 -7 -7q10 -29 35 -42h104l35 -7
v-14q0 -14 -14 -14h-516l-7 -35q14 -62 27 -236h586q14 0 21 -69q0 -14 -7 -14q7 -70 7 -105v-187q0 -16 7 -28q0 -35 -257 -56q0 -14 -35 -14l-14 7q-28 -10 -28 -21v-7l132 -20q64 20 77 20q111 0 111 -104q0 -83 7 -83l-7 -14q7 -84 7 -125q0 -49 -69 -49h-1031
q-10 0 -21 21v62q0 24 -7 35q0 167 83 167h35q319 0 417 -14q28 7 23 7l70 -7q0 51 34 285l-14 7h-27q-239 0 -239 28l-7 28l7 35q0 71 -41 97l-14 -7l7 -35q0 -132 -84 -132q-59 0 -208 -7q-7 14 -7 21q0 59 -7 222l21 35v14q-21 0 -21 14v146q0 23 90 35q80 -7 153 -7
l14 21v76q0 29 7 77q-7 12 -7 27q82 174 153 174h377v-7q7 -187 35 -187h7v27q0 174 69 174z" />
    <glyph glyph-name="t" unicode="t" horiz-adv-x="1266" 
d="M41 1434h766l20 -14q-69 -145 -69 -172q16 0 21 -35q-14 -61 -14 -82q16 -49 21 -49l-7 -34v-993q-41 -55 -96 -55h-318q-48 0 -69 83l7 48v62q0 186 118 186q0 9 41 14q61 -7 76 -7l138 21q35 -14 55 -14l7 14q-7 0 -35 34q-95 -14 -151 -14q-133 14 -187 14h-13
q-7 0 -7 -7q-30 0 -35 76q7 472 7 600q21 135 55 172v14q-61 0 -96 -124l-35 -7q-53 0 -193 -7q-37 0 -48 145q14 131 41 131zM869 1434h103q120 0 186 -14v-20q0 -21 21 -56q-46 -179 -110 -179q0 -7 -7 -7q-214 0 -214 48q0 5 -21 97q32 131 42 131z" />
    <glyph glyph-name="u" unicode="u" horiz-adv-x="1215" 
d="M62 1437h69q158 0 158 -48q7 0 7 -7v-76q0 -37 27 -48q7 58 35 117q-14 42 -14 55l14 7h82q14 -2 14 -14q-7 -79 -14 -89q7 -213 7 -337v-584q0 -21 -96 -28l-69 7l-7 -14v-7q70 -34 83 -34h62q34 -18 34 -48h117q48 29 48 41q7 131 7 179l20 14h7l55 -49q94 28 193 28
h20q7 0 7 -7l14 7q49 -14 55 -14l7 14q-79 34 -144 34h-152q-89 80 -89 97q0 32 7 213l14 7l-7 13q41 235 41 344q0 59 -7 206h7q4 0 82 -82q13 15 124 41q33 55 41 55h159q27 0 27 -254q7 -231 7 -337q-36 -55 -41 -55h-42q-6 0 -6 7q-28 -11 -28 -21q48 -18 124 -27
q7 -49 7 -55q0 -306 13 -626q-34 -55 -41 -55h-818q-106 0 -323 -7l-7 14q0 73 48 96q14 107 14 206v220q0 16 -7 28l7 14l-7 13l7 14l-7 14l7 14q-7 12 -7 27h7l-7 14v7q0 7 7 7l-7 13v7q0 7 7 7l-7 14v14q0 6 7 6l-7 14v7q0 7 7 7l-7 14v7q0 6 7 6l-7 14v7q0 7 7 7l-7 14
v7q0 6 7 6l-7 14v172q0 79 -7 241h7l-7 13v7q0 7 7 7q0 7 -7 7q0 117 62 117z" />
    <glyph glyph-name="v" unicode="v" horiz-adv-x="1473" 
d="M968 1446h41q42 0 128 -128q13 0 13 14v27q0 47 -13 74l20 13h175q22 0 47 -108v-255q0 -101 -7 -182q7 -45 7 -141q0 -82 -14 -202l7 -13q0 -168 -74 -168h-34q-121 44 -121 60q-11 74 -27 74h-6q-10 0 -20 -20l6 -67q-40 -20 -141 -20h-20q-114 4 -114 33q9 0 20 20
q0 44 -7 88q20 128 54 128h27v6q0 170 -7 713q17 54 60 54zM54 1426h363q54 0 54 -115v-87q0 -24 7 -60q0 -44 -61 -54h-67q-61 -32 -61 -41v-13q43 0 88 7q87 -14 87 -34v-363l7 -14l33 7q47 -33 47 -81q-20 -56 -20 -74q20 -100 41 -100l228 -7q13 7 21 7q0 -41 20 -41
q92 0 127 7l189 -14q-94 -59 -94 -127v-61q0 -54 -95 -54l-13 -13l-34 7h-6q-7 0 -7 -7l-13 7h-27q-12 0 -27 -101q-12 -7 -27 -7h-236l-33 7v27q0 74 -41 74q-87 0 -87 67q0 94 -40 94h-148q-47 0 -47 47v101q0 10 -21 20h-20q-134 0 -134 41v221q0 23 -7 34l7 40v202
q0 32 6 67q0 8 -6 21q6 124 6 208v135q7 20 41 20z" />
    <glyph glyph-name="w" unicode="w" horiz-adv-x="1715" 
d="M248 1437h171q47 0 76 -89q0 -83 -76 -83q-192 0 -192 -41q-28 -69 -28 -76q7 0 7 -7q77 76 103 76q4 0 28 7q65 -7 124 -7h20q14 -2 14 -14q0 -22 -27 -62v-41q0 -17 -14 -62q34 -172 48 -172q124 0 124 35q23 282 62 282q66 0 89 6q45 -6 89 -6h55q69 0 69 -241v-62
l14 -7q70 7 110 7q14 0 14 14v433q27 96 96 96q2 7 69 7h261q38 0 69 -48v-688q0 -18 -55 -27h-103q-23 0 -76 -48q-44 0 -90 -7v-28q-41 -92 -89 -281l-14 -7h-158q-47 0 -62 117l-7 13q7 47 7 76v14q-24 19 -41 62q-38 0 -282 -7q-34 -65 -34 -110q0 -36 20 -62v-21
q-19 -44 -55 -69h-6q-57 13 -62 28l-48 -7h-165v-14q97 -7 171 -20v-7q-20 -93 -20 -103q14 -45 14 -62v-28q0 -96 -55 -96h-241q-158 0 -158 28l-14 213q32 32 117 41q101 -7 179 -7v7q0 12 -90 34q-77 42 -185 42l-21 41q15 292 28 330q-7 179 -7 282v247q0 172 75 172
q79 7 152 7zM1471 598h49q75 0 75 -192q14 -209 14 -268q-7 -131 -34 -131h-427q-14 0 -14 14q7 93 7 130q-13 23 -13 42q0 41 96 41q52 29 103 268q0 69 96 69q11 27 48 27z" />
    <glyph glyph-name="x" unicode="x" horiz-adv-x="1314" 
d="M1131 1433q55 0 55 -103q7 0 14 -48l-21 -164q7 -43 35 -117q0 -117 -76 -117q-103 0 -130 -89q-12 -7 -28 -7h-68q-34 0 -62 -34l124 -20h185l20 -14l-7 -48v-7q0 -14 28 -110q-34 -216 -34 -329v-13q20 -90 20 -96v-35q0 -56 -75 -75h-131l-34 7v68q0 10 -20 21h-7
q-13 -96 -55 -96h-103q-43 0 -55 55l7 13v14q0 48 -34 137q9 206 48 206q170 14 315 34v14h-315l-48 69l-21 13h-48l-82 7q-14 -26 -21 -137q0 -7 7 -21q-13 -121 -13 -260q-37 -151 -76 -151h-343q-55 0 -55 103q-6 0 -13 48l20 164q-7 43 -34 117q0 117 75 117
q104 0 131 89q12 7 27 7h69q34 0 61 34l-123 20h-185l-21 14l7 48v7q0 14 -27 110q34 216 34 329v13q-21 90 -21 96v35q0 56 76 75h130l34 -7v-68q0 -10 21 -21h7q13 96 55 96h103q43 0 54 -55l-6 -13v-14q0 -48 34 -137q-10 -206 -48 -206q-170 -14 -316 -34v-14h316
l48 -69l20 -13h48l83 -7q13 26 20 137q0 7 -7 21q14 121 14 260q36 151 75 151h343z" />
    <glyph glyph-name="y" unicode="y" horiz-adv-x="1305" 
d="M1123 1433q55 0 55 -103q7 0 14 -49l-21 -165q7 -43 35 -117q0 -117 -76 -117q-104 0 -131 -90q-12 -7 -28 -7h-68q-35 0 -62 -34l124 -21h186l20 -13l-7 -49v-7q0 -14 28 -110q-35 -224 -35 -317q14 -34 21 -34q0 -8 -7 -21q7 -72 7 -117q-28 -62 -69 -62h-1026
q-49 0 -49 90q-29 80 -34 82q15 104 62 104h276q9 0 20 -21v-41q-14 -50 -14 -56q0 -41 76 -41q7 -27 62 -96q11 0 35 55q-39 0 -76 96q-35 11 -35 21q10 83 62 83h207q0 28 21 186v34q0 31 -42 62q-174 7 -254 7h-221l-14 7q13 69 55 69h69q35 0 62 34l-124 21h-186l-20 14
l7 48v7q0 14 -28 110q34 218 34 331v13q-20 90 -20 97v34q0 57 76 76h130l35 -7v-69q0 -10 21 -20h6q14 96 56 96h103q44 0 55 -55l-7 -14v-14q0 -48 35 -137q-10 -207 -49 -207q-170 -14 -317 -34v-14h317l49 -69l20 -14h48l83 -7q14 27 21 138q0 7 -7 21q14 122 14 261
q36 152 76 152h344z" />
    <glyph glyph-name="z" unicode="z" 
d="M7 306q18 28 56 28h139l34 7q13 -16 21 -63h-7q7 -110 7 -132q0 -7 7 -21q-7 0 -7 -7v-35l7 -34q-53 -49 -97 -49h-111q-32 0 -49 306zM857 174v28h-7q-28 0 -35 -188v-7h-377q-71 0 -153 174q0 15 7 28q-7 47 -7 76v77l-14 20q-73 0 -153 -7q-90 12 -90 35v146
q0 14 21 14v14l-21 35q7 164 7 222q0 8 7 21q149 -7 208 -7q84 0 84 -132l-7 -35l14 -7q41 26 41 98l-7 34l7 28q0 28 239 28h27l14 7q-34 235 -34 285l-70 -7q5 0 -23 7q-98 -14 -417 -14h-35q-83 0 -83 167q7 12 7 35v62q11 21 21 21h1031q69 0 69 -48q0 -42 -7 -126
l7 -14q-7 0 -7 -83q0 -104 -111 -104q-13 0 -77 21l-132 -21v-7q0 -11 28 -21l14 7q35 0 35 -14q257 -20 257 -56q-7 -12 -7 -27v-188q0 -35 -7 -104q7 0 7 -14q-7 -70 -21 -70h-586q-13 -174 -27 -236l7 -35h516q14 0 14 -14v-14l-35 -7h-104q-25 -13 -35 -41q7 0 7 -7
l69 7h98q27 0 83 69h7q14 0 14 -14v-76q0 -49 7 -153q-34 -42 -125 -42h-91q-69 0 -69 174z" />
    <glyph glyph-name="uniF001" unicode="&#xf001;" horiz-adv-x="1073" 
 />
    <glyph glyph-name="uniF001" unicode="&#xfb01;" horiz-adv-x="1073" 
 />
    <glyph glyph-name="uniF002" unicode="&#xf002;" horiz-adv-x="1081" 
 />
    <glyph glyph-name="uniF002" unicode="&#xfb02;" horiz-adv-x="1081" 
 />
  </font>
</defs>
</svg>
